<?xml version="1.0" standalone="no"?>
<!DOCTYPE svg PUBLIC "-//W3C//DTD SVG 1.1//EN" "http://www.w3.org/Graphics/SVG/1.1/DTD/svg11.dtd" >
<svg xmlns="http://www.w3.org/2000/svg">
<metadata>
Generated by SVGconv.
Copyright   : Copyright  1990- 2008 ParaType, Inc. All rights reserved.
Designer    : Paul Renner,Vladimir Yefimov, Isabella Chaeva 
Foundry     : ParaType, Inc.
Foundry URL : http://www.paratype.com
</metadata>
<defs>
<font id="FuturaPTWebCond-Book" horiz-adv-x="353" >
<font-face units-per-em="1000" ascent="982" descent="300" />
<missing-glyph horiz-adv-x="500" />
<glyph unicode="&#32;" horiz-adv-x="233" />
<glyph unicode="&#33;" horiz-adv-x="237" d="M88 167v500h60v-500zM163 38q0 -19 -13 -32q-13 -13 -32 -13q-18 0 -31.5 13.5q-13.5 13.5 -13.5 31.5q0 19 13 32q13 13 32 13q19 0 32 -13t13 -32z" />
<glyph unicode="&#34;" horiz-adv-x="305" d="M238 398h-42l-10 269h62zM109 398h-42l-10 269l62 0z" />
<glyph unicode="&#35;" horiz-adv-x="600" d="M561 414h-111l-23 -148h112l-8 -52h-112l-32 -214h-59l33 214h-149l-32 -214h-58l32 214h-114l8 52h114l23 148h-114l7 52h115l30 201h58l-31 -201h149l31 201h58l-30 -201h111zM242 414l-22 -148h149l22 148z" />
<glyph unicode="&#36;" horiz-adv-x="366" d="M275 589q-20 13 -42 21.5q-22 8.5 -46 8.5q-45 0 -71.5 -28.5q-26.5 -28.5 -26.5 -73.5q0 -44 18 -72.5q18 -28.5 45.5 -49q27.5 -20.5 59 -38q31.5 -17.5 59 -41q27.5 -23.5 45.5 -56.5q18 -33 18 -84q0 -34 -9 -64.5q-9 -30.5 -26 -55q-17 -24.5 -41.5 -40.5q-24.5 -16 -55.5 -22l0 -85h-49v83q-37 6 -61 18.5q-24 12.5 -51 38.5l36 43q21 -17 45 -30.5q24 -13.5 52 -13.5q48 0 75 36.5q27 36.5 27 88.5q0 39 -18 65q-18 26 -45.5 46q-27.5 20 -59 38.5q-31.5 18.5 -59 43q-27.5 24.5 -45.5 59.5q-18 35 -18 88q0 63 30.5 104q30.5 41 91.5 56l0 78h49v-76q29 -2 55 -12.5q26 -10.5 49 -26.5z" />
<glyph unicode="&#37;" horiz-adv-x="514" d="M136 0h-46l289 667h46zM386 296q-15 0 -24 -10q-10 -11 -13.5 -36.5q-3.5 -25.5 -3.5 -82.5q0 -57 3.5 -83q3.5 -26 13.5 -37q9 -10 24 -10q15 0 24 10q10 11 13.5 37q3.5 26 3.5 83q0 57 -3.5 82.5q-3.5 25.5 -13.5 36.5q-9 10 -24 10zt0 0zM474 166q0 -24 -1 -46.5q-1 -22.5 -4 -42q-3 -19.5 -9.5 -35.5q-6.5 -16 -17.5 -27q-14 -14 -28.5 -17q-14.5 -3 -27.5 -3q-13 0 -27 3q-14 3 -28 17q-23 22 -27.5 63q-4.5 41 -4.5 88q0 47 4.5 88q4.5 41 27.5 63q14 14 28 17q14 3 27 3q13 0 27.5 -3q14.5 -3 28.5 -17q11 -11 17.5 -27q6.5 -16 9.5 -35.5q3 -19.5 4 -42q1 -22.5 1 -46.5zt0 0zM127 630q-15 0 -24 -10q-10 -11 -13.5 -36.5q-3.5 -25.5 -3.5 -82.5q0 -57 3.5 -83q3.5 -26 13.5 -37q9 -10 24 -10q15 0 24 10q10 11 13.5 37q3.5 26 3.5 83q0 57 -3.5 82.5q-3.5 25.5 -13.5 36.5q-9 10 -24 10zt0 0zM215 500q0 -24 -1 -46.5q-1 -22.5 -4 -42q-3 -19.5 -9.5 -35.5q-6.5 -16 -17.5 -27q-14 -14 -28.5 -17q-14.5 -3 -27.5 -3q-13 0 -27 3q-14 3 -28 17q-23 22 -27.5 63q-4.5 41 -4.5 88q0 47 4.5 88q4.5 41 27.5 63q14 14 28 17q14 3 27 3q13 0 27.5 -3q14.5 -3 28.5 -17q11 -11 17.5 -27q6.5 -16 9.5 -35.5q3 -19.5 4 -42t1 -46.5z" />
<glyph unicode="&#38;" horiz-adv-x="444" d="M427 150q-14 -18 -28.5 -35q-14.5 -17 -30.5 -34l41 -81h-65l-20 37q-24 -22 -50.5 -34q-26.5 -12 -59.5 -12q-37 0 -66.5 15.5q-29.5 15.5 -50.5 40.5q-21 25 -32.5 57.5q-11.5 32.5 -11.5 67.5q0 31 7 57.5q7 26.5 20 49.5q13 23 31.5 44q18.5 21 40.5 41q-10 18 -21 38.5q-11 20.5 -20 43.5q-9 23 -14.5 47.5q-5.5 24.5 -5.5 50.5q0 28 10 52q10 24 28 42q18 18 42 28q24 10 52 10q26 0 48 -9.5q22 -9.5 38 -26.5q16 -17 25 -39.5q9 -22.5 9 -48.5q0 -35 -10.5 -63.5q-10.5 -28.5 -27.5 -52.5q-17 -24 -38 -44q-21 -20 -42 -38l115 -218q26 28 46 56zM283 554q0 27 -17.5 47.5q-17.5 20.5 -45.5 20.5q-32 0 -52 -22.5q-20 -22.5 -20 -53.5q0 -46 16 -80.5q16 -34.5 33 -64.5q16 13 31.5 28.5q15.5 15.5 27.5 34.5q12 19 19.5 41.5q7.5 22.5 7.5 48.5zt0 0zM179 310q-27 -29 -47.5 -63.5q-20.5 -34.5 -20.5 -75.5q0 -21 7 -42.5q7 -21.5 20 -38.5q13 -17 31.5 -28q18.5 -11 41.5 -11q25 0 46 11.5q21 11.5 39 27.5z" />
<glyph unicode="&#39;" horiz-adv-x="175" d="M109 398h-42l-10 269l62 0z" />
<glyph unicode="&#40;" horiz-adv-x="260" d="M172 -181q-28 49 -50 106q-22 57 -37.5 116.5q-15.5 59.5 -23.5 119.5q-8 60 -8 117q0 57 8 117q8 60 23.5 119.5q15.5 59.5 37.5 116q22 56.5 50 106.5l48 -23q-45 -104 -77.5 -212.5q-32.5 -108.5 -32.5 -223.5q0 -115 32.5 -223.5q32.5 -108.5 77.5 -212.5z" />
<glyph unicode="&#41;" horiz-adv-x="260" d="M89 737q28 -50 50 -106.5q22 -56.5 37 -115.5q15 -59 23 -119q8 -60 8 -118q0 -58 -8 -118q-8 -60 -23 -119q-15 -59 -37 -115.5q-22 -56.5 -50 -106.5l-49 23q53 103 81.5 211q28.5 108 28.5 225q0 117 -28.5 225q-28.5 108 -81.5 211z" />
<glyph unicode="&#42;" horiz-adv-x="367" d="M212 576l70 -97l-29 -21l-70 97l-70 -97l-29 21l71 97l-114 37l11 34l114 -37v119h35v-119l114 37l11 -34z" />
<glyph unicode="&#43;" horiz-adv-x="500" d="M278 305v-176h-56v176h-189v53h189v175h56v-175h189l0 -53z" />
<glyph unicode="&#44;" horiz-adv-x="177" d="M49 -142l-43 20l69 205l62 -28z" />
<glyph unicode="&#45;" horiz-adv-x="238" d="M50 233v58h138l0 -58z" />
<glyph unicode="&#46;" horiz-adv-x="177" d="M133 38q0 -19 -13 -32q-13 -13 -32 -13q-18 0 -31.5 13.5q-13.5 13.5 -13.5 31.5q0 19 13 32q13 13 32 13q19 0 32 -13t13 -32z" />
<glyph unicode="&#47;" horiz-adv-x="408" d="M19 -173h-58l391 902l57 0z" />
<glyph unicode="&#48;" horiz-adv-x="366" d="M333 356q0 -26 -1 -62.5q-1 -36.5 -5.5 -77.5q-4.5 -41 -13.5 -81q-9 -40 -26 -72q-17 -32 -42.5 -52q-25.5 -20 -62.5 -20q-35 0 -59.5 17.5q-24.5 17.5 -41 46q-16.5 28.5 -26 64q-9.5 35.5 -14.5 72q-5 36.5 -6.5 70q-1.5 33.5 -1.5 58.5q0 26 1.5 63q1.5 37 7 76.5q5.5 39.5 16 78.5q10.5 39 28.5 70q18 31 44.5 50q26.5 19 63.5 19q34 0 58 -17q24 -17 39.5 -44.5q15.5 -27.5 24 -62.5q8.5 -35 12.5 -70.5q4 -35.5 4.5 -68.5q0.5 -33 0.5 -57zt0 0zM273 378q0 21 -1.5 61q-1.5 40 -9 80q-7.5 40 -24.5 70q-17 30 -47 30q-23 0 -39 -17.5q-16 -17.5 -27 -45q-11 -27.5 -17.5 -61.5q-6.5 -34 -9.5 -67q-3 -33 -4 -61q-1 -28 -1 -44q0 -24 1 -53q1 -29 4.5 -58.5q3.5 -29.5 9 -57.5q5.5 -28 14.5 -50q9 -22 23.5 -39q14.5 -17 40.5 -17q24 0 36.5 15q12.5 15 20.5 35q10 27 16 63q6 36 9 74.5q3 38.5 4 75.5t1 67z" />
<glyph unicode="&#49;" horiz-adv-x="366" d="M162 0v609h-86v58h148l0 -667z" />
<glyph unicode="&#50;" horiz-adv-x="366" d="M47 487q0 35 5 69q5 34 19.5 60.5q14.5 26.5 41 43q26.5 16.5 69.5 16.5q66 0 101 -42.5q35 -42.5 35 -105.5q0 -37 -7.5 -71.5q-7.5 -34.5 -20 -67.5q-12.5 -33 -28.5 -65q-16 -32 -32 -64l-102 -201h182v-59h-273l137 282q14 29 28.5 58.5q14.5 29.5 26 60.5q11.5 31 19 62.5q7.5 31.5 7.5 64.5q0 17 -3.5 33.5q-3.5 16.5 -12 29q-8.5 12.5 -22 20.5q-13.5 8 -32.5 8q-28 0 -43.5 -13q-15.5 -13 -23 -33q-7.5 -20 -9 -43.5q-1.5 -23.5 -1.5 -44.5l-61 0z" />
<glyph unicode="&#51;" horiz-adv-x="366" d="M50 511q0 31 6.5 60.5q6.5 29.5 21.5 53q15 23.5 39 37.5q24 14 60 14q36 0 61 -12q25 -12 41 -32.5q16 -20.5 23.5 -48.5q7.5 -28 7.5 -61q0 -24 -3 -46.5q-3 -22.5 -11.5 -42.5q-8.5 -20 -23 -36.5q-14.5 -16.5 -38.5 -27.5q29 -12 46 -33q17 -21 25.5 -47q8.5 -26 11 -54.5q2.5 -28.5 2.5 -55.5q0 -36 -6 -69.5q-6 -33.5 -21.5 -60q-15.5 -26.5 -42.5 -42.5q-27 -16 -69 -16q-39 0 -65 12.5q-26 12.5 -42.5 35q-16.5 22.5 -23.5 52.5q-7 30 -7 65v27h61q0 -21 1.5 -44.5q1.5 -23.5 9 -43q7.5 -19.5 23 -32q15.5 -12.5 44.5 -12.5q27 0 43 14.5q16 14.5 23.5 35.5q7.5 21 9.5 45.5q2 24.5 2 44.5q0 29 -5 55.5q-5 26.5 -17.5 47q-12.5 20.5 -34 32.5q-21.5 12 -55.5 12h-30v55h26q26 0 45.5 4.5q19.5 4.5 36.5 24.5q16 19 20.5 45.5q4.5 26.5 4.5 50.5q0 18 -3.5 36q-3.5 18 -11.5 31.5q-8 13.5 -22 22q-14 8.5 -36 8.5q-24 0 -37.5 -9.5q-13.5 -9.5 -20.5 -24.5q-7 -15 -9.5 -34q-2.5 -19 -2.5 -37z" />
<glyph unicode="&#52;" horiz-adv-x="366" d="M273 179v-179h-61v179h-175v63l175 425h61v-431h50v-57zM212 236q0 34 -0.5 67.5q-0.5 33.5 -0.5 67.5q0 50 1.5 99q1.5 49 6.5 99q-8 -29 -17.5 -57.5q-9.5 -28.5 -20.5 -57.5l-86 -218z" />
<glyph unicode="&#53;" horiz-adv-x="366" d="M131 405q18 3 35 3q42 0 71 -19.5q29 -19.5 47 -50.5q18 -31 26 -68q8 -37 8 -73q0 -37 -9 -73.5q-9 -36.5 -28.5 -66q-19.5 -29.5 -51 -48q-31.5 -18.5 -77.5 -18.5q-59 0 -104 33l17 61q20 -15 42.5 -24.5q22.5 -9.5 47.5 -9.5q30 0 49 15q19 15 30.5 37q11.5 22 16 47.5q4.5 25.5 4.5 47.5q0 26 -5 52.5q-5 26.5 -17.5 48.5q-12.5 22 -34.5 35.5q-22 13.5 -55 13.5q-24 0 -44.5 -4q-20.5 -4 -37.5 -8l39 331h199v-58l-144 0z" />
<glyph unicode="&#54;" horiz-adv-x="366" d="M177 462q-6 -14 -10.5 -23q-4.5 -9 -9 -19.5q-4.5 -10.5 -11 -25q-6.5 -14.5 -15.5 -39.5q20 14 35.5 18.5q15.5 4.5 29.5 4.5q29 0 47.5 -10q18.5 -10 28.5 -19q16 -15 25.5 -37.5q9.5 -22.5 14.5 -46q5 -23.5 6.5 -46.5q1.5 -23 1.5 -39q0 -57 -12 -96q-12 -39 -34 -60q-13 -13 -35 -23q-22 -10 -54 -10q-52 0 -86 32q-18 17 -28.5 38.5q-10.5 21.5 -16 45q-5.5 23.5 -7 47.5q-1.5 24 -1.5 45q0 35 4 65q4 30 13 65q8 31 18.5 57q10.5 26 22.5 55l95 226h65zM106 185q0 -15 1.5 -32q1.5 -17 5 -33.5q3.5 -16.5 10 -31q6.5 -14.5 16.5 -23.5q8 -8 21.5 -14q13.5 -6 27.5 -6q14 0 26.5 6q12.5 6 20.5 15q7 8 16 33q9 25 9 85q0 52 -8.5 79.5q-8.5 27.5 -21.5 41.5q-8 8 -20 14q-12 6 -27 6q-17 0 -28.5 -6.5q-11.5 -6.5 -18.5 -14.5q-8 -8 -19 -34.5t-11 -84.5z" />
<glyph unicode="&#55;" horiz-adv-x="366" d="M124 0h-65l188 609h-192v58l274 0z" />
<glyph unicode="&#56;" horiz-adv-x="366" d="M323 188q0 -36 -6.5 -71q-6.5 -35 -23 -63q-16.5 -28 -44 -45.5q-27.5 -17.5 -70.5 -17.5q-42 0 -68.5 18.5q-26.5 18.5 -41.5 47.5q-15 29 -21 64q-6 35 -6 69q0 25 3.5 52q3.5 27 13 51.5q9.5 24.5 26 44.5q16.5 20 42.5 31q-41 26 -55.5 61.5q-14.5 35.5 -14.5 81.5q0 32 7.5 61.5q7.5 29.5 24 52.5q16.5 23 41.5 36.5q25 13.5 61 13.5q35 0 59 -14.5q24 -14.5 39 -37.5q15 -23 21.5 -53q6.5 -30 6.5 -60q0 -45 -14.5 -82q-14.5 -37 -55.5 -60q25 -14 40 -34.5q15 -20.5 23 -44.5q8 -24 10.5 -50q2.5 -26 2.5 -52zt0 0zM257 507q0 18 -3 37.5q-3 19.5 -10.5 36q-7.5 16.5 -21.5 27.5q-14 11 -36 11q-21 0 -34.5 -9.5q-13.5 -9.5 -21 -24.5q-7.5 -15 -10.5 -33.5q-3 -18.5 -3 -35.5q0 -18 2.5 -38.5q2.5 -20.5 10 -38.5q7.5 -18 21.5 -30q14 -12 37 -12q22 0 35.5 10.5q13.5 10.5 21 27q7.5 16.5 10 36q2.5 19.5 2.5 36.5zt0 0zM263 197q0 20 -2.5 45q-2.5 25 -11 47q-8.5 22 -24.5 37q-16 15 -42 15q-26 0 -42 -16q-16 -16 -24.5 -39.5q-8.5 -23.5 -11 -49.5q-2.5 -26 -2.5 -45q0 -20 2.5 -44.5q2.5 -24.5 11 -46.5q8.5 -22 24 -37q15.5 -15 41.5 -15q29 0 45 15.5q16 15.5 24 38q8 22.5 10 48.5t2 47z" />
<glyph unicode="&#57;" horiz-adv-x="366" d="M232 312q-15 -11 -31 -17q-16 -6 -35 -6q-38 0 -61.5 20.5q-23.5 20.5 -36.5 50.5q-13 30 -17.5 65q-4.5 35 -4.5 64q0 33 5.5 66.5q5.5 33.5 20.5 60.5q15 27 40.5 43.5q25.5 16.5 66.5 16.5q41 0 68.5 -17q27.5 -17 43.5 -45q16 -28 22.5 -62.5q6.5 -34.5 6.5 -68.5q0 -63 -14.5 -123.5q-14.5 -60.5 -38.5 -117.5l-101 -242h-64zM260 482q0 20 -3 44.5q-3 24.5 -12 46q-9 21.5 -25 36q-16 14.5 -42 14.5q-24 0 -38 -16q-14 -16 -22 -39q-8 -23 -10.5 -47.5q-2.5 -24.5 -2.5 -42.5q0 -19 2.5 -42.5q2.5 -23.5 11 -44.5q8.5 -21 23.5 -35q15 -14 41 -14q25 0 40.5 14.5q15.5 14.5 23.5 36q8 21.5 10.5 46t2.5 43.5z" />
<glyph unicode="&#58;" horiz-adv-x="177" d="M133 409q0 -19 -13 -32q-13 -13 -32 -13q-18 0 -31.5 13.5q-13.5 13.5 -13.5 31.5q0 19 13 32q13 13 32 13q19 0 32 -13q13 -13 13 -32zt0 0zM133 38q0 -19 -13 -32q-13 -13 -32 -13q-18 0 -31.5 13.5q-13.5 13.5 -13.5 31.5q0 19 13 32q13 13 32 13q19 0 32 -13t13 -32z" />
<glyph unicode="&#59;" horiz-adv-x="177" d="M137 409q0 -19 -13 -32q-13 -13 -32 -13q-19 0 -32 13q-13 13 -13 32q0 19 13 32q13 13 32 13q19 0 32 -13q13 -13 13 -32zt0 0zM49 -142l-43 20l69 205l62 -28z" />
<glyph unicode="&#60;" horiz-adv-x="500" d="M33 304v50l434 198v-57l-372 -166l372 -166l0 -57z" />
<glyph unicode="&#61;" horiz-adv-x="500" d="M33 390v51h434v-51zM33 243v51h434l0 -51z" />
<glyph unicode="&#62;" horiz-adv-x="500" d="M33 106v57l372 166l-372 166v57l434 -198l0 -50z" />
<glyph unicode="&#63;" horiz-adv-x="332" d="M53 545q0 57 26.5 94q26.5 37 88.5 37q25 0 49 -9q24 -9 39 -30q18 -25 20.5 -56q2.5 -31 2.5 -60q0 -33 -2 -67q-2 -34 -13 -61.5q-11 -27.5 -34.5 -46q-23.5 -18.5 -66.5 -19.5l0 -160h-59v214q8 0 16.5 -0.5q8.5 -0.5 16.5 -0.5q11 0 25.5 1.5q14.5 1.5 25.5 7.5q13 8 19 25.5q6 17.5 8.5 38.5q2.5 21 2.5 41.5q0 20.5 0 34.5q0 14 -1 30q-1 16 -6.5 30q-5.5 14 -16 23.5q-10.5 9.5 -28.5 9.5q-23 0 -34.5 -13.5q-11.5 -13.5 -15.5 -33q-4 -19.5 -3.5 -40.5q0.5 -21 0.5 -37l-60 0zM181 38q0 -19 -13 -32q-13 -13 -32 -13q-18 0 -31.5 13.5q-13.5 13.5 -13.5 31.5q0 19 13 32q13 13 32 13q19 0 32 -13t13 -32z" />
<glyph unicode="&#64;" horiz-adv-x="733" d="M620 39q-108 -52 -229 -52q-77 0 -142.5 24.5q-65.5 24.5 -113.5 70q-48 45.5 -75 109q-27 63.5 -27 141.5q0 73 27 135.5q27 62.5 73.5 108.5q46.5 46 110 72.5q63.5 26.5 135.5 26.5q64 0 121.5 -21q57.5 -21 101 -60q43.5 -39 68.5 -93.5q25 -54.5 25 -121.5q0 -49 -15 -95q-8 -24 -21.5 -49q-13.5 -25 -32 -46q-18.5 -21 -42.5 -34q-24 -13 -52 -13q-32 0 -51 19.5q-19 19.5 -21 50.5q-21 -34 -52.5 -53.5q-31.5 -19.5 -72.5 -19.5q-34 0 -60 13.5q-26 13.5 -44 36q-18 22.5 -27 51.5q-9 29 -9 60q0 37 12 74q12 37 35 65.5q23 28.5 55 46.5q32 18 73 18q87 0 114 -84l14 71h42l-41 -216q-2 -12 -4.5 -23.5q-2.5 -11.5 -2.5 -23.5q0 -20 10.5 -35q10.5 -15 32.5 -15q21 0 39 12q18 12 31.5 30q13.5 18 23.5 39q10 21 15 39q11 41 11 80q0 59 -22 106.5q-22 47.5 -59.5 81q-37.5 33.5 -87.5 51.5q-50 18 -107 18q-64 0 -119.5 -23.5q-55.5 -23.5 -96.5 -64.5q-41 -41 -64.5 -96.5q-23.5 -55.5 -23.5 -119.5q0 -59 21 -115q21 -56 62 -99q48 -51 106 -71q58 -20 126 -20q60 0 111.5 13q51.5 13 105.5 38zM466 356q0 43 -22.5 74q-22.5 31 -69.5 31q-31 0 -55 -14.5q-24 -14.5 -41 -37.5q-17 -23 -26 -51q-9 -28 -9 -56q0 -23 6 -44.5q6 -21.5 18.5 -38.5q12.5 -17 31.5 -27q19 -10 44 -10q33 0 56.5 17q23.5 17 38 42.5q14.5 25.5 21.5 56.5t7 58z" />
<glyph unicode="&#65;" horiz-adv-x="325" d="M258 0l-25 137h-141l-25 -137h-66l132 667h58l133 -667zM179 426q-8 39 -12.5 78q-4.5 39 -6.5 79q-7 -100 -24 -197q-17 -97 -34 -195l121 0z" />
<glyph unicode="&#66;" horiz-adv-x="351" d="M152 667q26 0 51.5 -3.5q25.5 -3.5 46.5 -19.5q15 -11 25 -29q10 -18 15.5 -38q5.5 -20 8 -41q2.5 -21 2.5 -39q0 -51 -16.5 -91.5q-16.5 -40.5 -65.5 -63.5q32 -9 51.5 -24.5q19.5 -15.5 30 -36.5q10.5 -21 13.5 -47q3 -26 3 -56q0 -21 -2 -42q-2 -21 -8 -40.5q-6 -19.5 -17 -37q-11 -17.5 -28 -30.5q-24 -19 -50 -23.5q-26 -4.5 -55 -4.5h-102v667zM150 372q30 0 47.5 10q17.5 10 26.5 26.5q9 16.5 11.5 38.5q2.5 22 2.5 47q0 24 -1.5 45.5q-1.5 21.5 -9.5 38q-8 16.5 -24.5 26q-16.5 9.5 -46.5 9.5h-39v-241zM150 53q32 0 52 9.5q20 9.5 31.5 26q11.5 16.5 15.5 40q4 23.5 4 51.5q0 25 -4.5 49.5q-4.5 24.5 -15.5 44q-11 19.5 -30.5 31.5q-19.5 12 -49.5 12h-36l0 -264z" />
<glyph unicode="&#67;" horiz-adv-x="320" d="M302 19q-20 -13 -42 -20.5q-22 -7.5 -45 -7.5q-36 0 -67.5 18q-31.5 18 -52.5 47q-19 26 -30.5 58.5q-11.5 32.5 -17.5 67q-6 34.5 -7.5 69q-1.5 34.5 -1.5 65.5q0 31 2 69.5q2 38.5 8 78.5q6 40 18 78q12 38 32.5 68q20.5 30 50.5 48q30 18 73 18q21 0 41.5 -5q20.5 -5 38.5 -16l0 -68q-17 11 -36 20q-19 9 -41 9q-30 0 -51 -15q-21 -15 -34.5 -39q-13.5 -24 -21.5 -54.5q-8 -30.5 -11.5 -61.5q-3.5 -31 -4.5 -60q-1 -29 -1 -50q0 -24 1.5 -58q1.5 -34 6.5 -68.5q5 -34.5 13.5 -66q8.5 -31.5 22.5 -51.5q28 -41 75 -41q23 0 43.5 9q20.5 9 38.5 21z" />
<glyph unicode="&#68;" horiz-adv-x="371" d="M133 667q48 0 81 -10q33 -10 55 -31q22 -21 35 -54q13 -33 20 -79q6 -42 7.5 -84.5q1.5 -42.5 1.5 -85.5q0 -30 -1 -67q-1 -37 -6.5 -74q-5.5 -37 -16.5 -71q-11 -34 -31 -58q-28 -33 -63.5 -43q-35.5 -10 -77.5 -10h-82v667zM146 57q47 0 72 24.5q25 24.5 36.5 60.5q11.5 36 13 77q1.5 41 1.5 75q0 41 -0.5 80.5q-0.5 39.5 -4.5 79.5q-3 30 -8.5 58q-5.5 28 -18.5 50q-13 22 -35 35q-22 13 -59 13h-26l0 -553z" />
<glyph unicode="&#69;" horiz-adv-x="301" d="M55 0v667h208v-57h-146v-235h142v-57h-142v-261h146l0 -57z" />
<glyph unicode="&#70;" horiz-adv-x="295" d="M117 610v-235h142v-57h-142v-318h-62v667h212l0 -57z" />
<glyph unicode="&#71;" horiz-adv-x="374" d="M336 218q0 -24 -0.5 -48.5q-0.5 -24.5 -4.5 -48.5q-9 -57 -42.5 -93.5q-33.5 -36.5 -94.5 -36.5q-38 0 -67 16q-29 16 -48 48q-14 25 -22.5 63q-8.5 38 -12.5 80q-4 42 -5 82.5q-1 40.5 -1 69.5q0 28 1 63.5q1 35.5 5.5 71.5q4.5 36 14.5 70.5q10 34.5 28 61.5q18 27 45.5 43q27.5 16 67.5 16q31 0 53 -9.5q22 -9.5 38 -26.5q16 -17 26.5 -40q10.5 -23 17.5 -50l-61 -24q-3 16 -8 32q-5 16 -13 29q-8 13 -21 21q-13 8 -32 8q-24 0 -41 -13.5q-17 -13.5 -28 -34.5q-11 -21 -17 -48q-6 -27 -9 -54q-3 -27 -3.5 -51.5q-0.5 -24.5 -0.5 -41.5q0 -26 0 -60.5q0 -34.5 2 -70q2 -35.5 6.5 -69q4.5 -33.5 12.5 -57.5q10 -29 27 -47q17 -18 49 -18q27 0 42.5 14q15.5 14 23 35q7.5 21 9 45q1.5 24 1.5 44v106h-91v57l153 0z" />
<glyph unicode="&#72;" horiz-adv-x="385" d="M269 0v344h-152v-344h-62v667h62v-266h152v266h62l0 -667z" />
<glyph unicode="&#73;" horiz-adv-x="171" d="M55 0v667h62l0 -667z" />
<glyph unicode="&#74;" horiz-adv-x="224" d="M169 96q0 -8 0 -14.5q0 -6.5 -1 -14.5q-4 -41 -30.5 -59q-26.5 -18 -64.5 -18q-20 0 -37.5 5q-17.5 5 -34.5 13l0 64q14 -12 28.5 -20q14.5 -8 33.5 -8q18 0 27 7.5q9 7.5 13 19q4 11.5 4 25.5q0 14 0 27v544l62 0z" />
<glyph unicode="&#75;" horiz-adv-x="329" d="M251 0l-134 336v-336h-62v667h62v-303l134 303h69l-144 -318l145 -349z" />
<glyph unicode="&#76;" horiz-adv-x="263" d="M55 0v667h62v-610h144l0 -57z" />
<glyph unicode="&#77;" horiz-adv-x="499" d="M417 0l-47 433q-3 30 -3.5 60.5q-0.5 30.5 -2.5 60.5q-2 -31 -5.5 -61q-3.5 -30 -8.5 -60l-74 -433h-51q-20 125 -42.5 248.5q-22.5 123.5 -36.5 249.5q-2 14 -2 28q0 14 -2 28l0 -23q0 -49 -6 -97l-54 -434h-61l94 667h53l72 -458q4 -26 7.5 -52.5q3.5 -26.5 5.5 -52.5q3 52 12 103l78 460h53l82 -667z" />
<glyph unicode="&#78;" horiz-adv-x="387" d="M278 0l-148 440q-16 48 -27 94q6 -53 6 -105v-429h-54v667h54l151 -453q7 -20 12.5 -39.5q5.5 -19.5 11.5 -39.5q-6 40 -6 82v450h54l0 -667z" />
<glyph unicode="&#79;" horiz-adv-x="404" d="M366 336q0 -28 -1 -64.5q-1 -36.5 -6 -75q-5 -38.5 -15 -75q-10 -36.5 -28 -65.5q-18 -29 -45.5 -47q-27.5 -18 -67.5 -18q-39 0 -66.5 17.5q-27.5 17.5 -45.5 46.5q-18 29 -29 65.5q-11 36.5 -16 74.5q-5 38 -6.5 74q-1.5 36 -1.5 64q0 27 1.5 63.5q1.5 36.5 7 74.5q5.5 38 16 75q10.5 37 28.5 65.5q18 28.5 45 46.5q27 18 66 18q39 0 66.5 -17.5q27.5 -17.5 46 -46q18.5 -28.5 28.5 -64.5q10 -36 15.5 -74q5.5 -38 6.5 -74q1 -36 1 -64zt0 0zM303 358q0 17 -0.5 42.5q-0.5 25.5 -3.5 54.5q-3 29 -9 57.5q-6 28.5 -17 51.5q-11 23 -28 37.5q-17 14.5 -42 14.5q-26 0 -43.5 -16q-17.5 -16 -29 -41.5q-11.5 -25.5 -17.5 -57q-6 -31.5 -8.5 -63q-2.5 -31.5 -3 -59q-0.5 -27.5 -0.5 -45.5q0 -17 0.5 -45q0.5 -28 3 -59.5q2.5 -31.5 8.5 -63.5q6 -32 17.5 -57.5q11.5 -25.5 29 -41.5q17.5 -16 43.5 -16q28 0 45.5 16q17.5 16 27.5 40q10 24 14.5 51q4.5 27 6.5 48q4 38 5 76t1 76z" />
<glyph unicode="&#80;" horiz-adv-x="329" d="M135 667q50 0 83 -11q33 -11 52 -34q19 -23 26.5 -58q7.5 -35 7.5 -82q0 -88 -37 -125.5q-37 -37.5 -125 -37.5h-25v-319h-62v667zM158 376q29 0 45.5 9.5q16.5 9.5 25 26q8.5 16.5 10.5 37.5q2 21 2 45q0 26 -3.5 47.5q-3.5 21.5 -13.5 36.5q-10 15 -28.5 23.5q-18.5 8.5 -48.5 8.5h-30l0 -234z" />
<glyph unicode="&#81;" horiz-adv-x="404" d="M317 -49l-40 62q-17 -12 -36 -17q-19 -5 -40 -5q-38 0 -65 18q-27 18 -45 46.5q-18 28.5 -28.5 65.5q-10.5 37 -16 75q-5.5 38 -7 74q-1.5 36 -1.5 63q0 27 1.5 63.5q1.5 36.5 7 74.5q5.5 38 16 75q10.5 37 28.5 65.5q18 28.5 45 46.5q27 18 66 18q39 0 66 -17q27 -17 45.5 -45.5q18.5 -28.5 29 -64q10.5 -35.5 15.5 -73q5 -37.5 6.5 -73q1.5 -35.5 1.5 -63.5q0 -31 -1.5 -69q-1.5 -38 -6.5 -76q-5 -38 -15 -74q-10 -36 -26 -63l49 -76zM280 116q15 51 19 105q4 54 4 108q0 32 -1 63q-1 31 -4 63q-2 21 -6.5 49q-4.5 28 -14.5 53q-10 25 -28 42q-18 17 -46 17q-26 0 -43.5 -16q-17.5 -16 -29 -41.5q-11.5 -25.5 -17.5 -57q-6 -31.5 -8.5 -63q-2.5 -31.5 -3 -59q-0.5 -27.5 -0.5 -45.5q0 -18 0.5 -46q0.5 -28 3 -59.5q2.5 -31.5 8.5 -63q6 -31.5 17.5 -57q11.5 -25.5 29.5 -41.5q18 -16 44 -16q24 0 40 13l-59 92l49 32z" />
<glyph unicode="&#82;" horiz-adv-x="376" d="M282 0l-155 326v-326h-68v667h84q29 0 59 -2.5q30 -2.5 56 -16.5q22 -12 36.5 -30q14.5 -18 22 -39q7.5 -21 10.5 -44.5q3 -23.5 3 -46.5q0 -35 -6.5 -64q-6.5 -29 -21.5 -51.5q-15 -22.5 -40.5 -36q-25.5 -13.5 -63.5 -16.5l155 -320zM168 375q30 0 48.5 8.5q18.5 8.5 28 24q9.5 15.5 13 37q3.5 21.5 3.5 47.5q0 29 -4 51q-4 22 -15 37q-11 15 -30.5 22.5q-19.5 7.5 -51.5 7.5h-33l0 -235z" />
<glyph unicode="&#83;" horiz-adv-x="347" d="M289 562q-20 24 -43 39q-23 15 -56 15q-23 0 -41 -9q-18 -9 -30 -24q-12 -15 -18.5 -35q-6.5 -20 -6.5 -41q0 -38 17 -64.5q17 -26.5 42 -48q25 -21.5 55 -40.5q30 -19 55 -42.5q25 -23.5 42 -55.5q17 -32 17 -78q0 -36 -12 -70q-12 -34 -33.5 -60q-21.5 -26 -52.5 -42q-31 -16 -69 -16q-29 0 -55.5 9q-26.5 9 -49.5 26l0 80q22 -23 48.5 -38.5q26.5 -15.5 59.5 -15.5q24 0 43 10q19 10 32 27q13 17 19.5 38q6.5 21 6.5 44q0 38 -17 64.5q-17 26.5 -42 47.5q-25 21 -55 40q-30 19 -55 42.5q-25 23.5 -42 55.5q-17 32 -17 79q0 34 10.5 66q10.5 32 30 56.5q19.5 24.5 48 39.5q28.5 15 65.5 15q30 0 55 -9.5q25 -9.5 49 -26.5z" />
<glyph unicode="&#84;" horiz-adv-x="265" d="M163 610v-610h-62v610h-100v57h262l0 -57z" />
<glyph unicode="&#85;" horiz-adv-x="390" d="M335 176q0 -23 -1.5 -46q-1.5 -23 -7.5 -46q-13 -47 -48 -70q-35 -23 -83 -23q-48 0 -82.5 23q-34.5 23 -48.5 70q-7 23 -8 46.5q-1 23.5 -1 46.5v490h62v-499q0 -21 2 -42q2 -21 10 -37.5q8 -16.5 23.5 -27q15.5 -10.5 42.5 -10.5q33 0 49 15.5q16 15.5 22.5 38.5q6.5 23 6.5 50q0 27 0 50v462l62 0z" />
<glyph unicode="&#86;" horiz-adv-x="326" d="M190 0h-55l-134 667h64l84 -442q6 -33 9 -66.5q3 -33.5 6 -67.5q3 33 7 66q4 33 10 66l80 444l64 0z" />
<glyph unicode="&#87;" horiz-adv-x="506" d="M387 0h-57l-65 433q-9 61 -12 124q-2 -10 -2 -19q0 -9 -1 -19q-1 -23 -4 -44.5q-3 -21.5 -7 -43.5l-75 -431h-56l-107 667h64l60 -420q3 -19 4.5 -37.5q1.5 -18.5 3.5 -37.5q1 -13 1.5 -25q0.5 -12 2.5 -25q3 33 8.5 65.5q5.5 32.5 10.5 64.5l71 415h54l62 -422q3 -18 5.5 -36.5q2.5 -18.5 4.5 -36.5q2 -13 3 -25q1 -12 3 -25q4 32 8 63q4 31 9 63l65 419l63 0z" />
<glyph unicode="&#88;" horiz-adv-x="318" d="M251 0l-66 189q-17 49 -26 95q-5 -25 -12.5 -49q-7.5 -24 -15.5 -48l-63 -187h-67l130 339l-130 328h67l59 -165q11 -29 19 -58q8 -29 13 -59q5 29 13.5 57q8.5 28 18.5 56l60 169h66l-127 -328l127 -339z" />
<glyph unicode="&#89;" horiz-adv-x="316" d="M193 289v-289h-62v289l-130 378h67l62 -191q6 -18 15.5 -53.5q9.5 -35.5 16.5 -69.5q3 20 9 47q6 27 20 75l57 192l67 0z" />
<glyph unicode="&#90;" horiz-adv-x="279" d="M84 57h169v-57h-245l185 610h-167v57l245 0z" />
<glyph unicode="&#91;" horiz-adv-x="267" d="M73 -173v902h161v-46h-102v-810h102l0 -46z" />
<glyph unicode="&#92;" horiz-adv-x="408" d="M56 729l391 -902h-58l-390 902z" />
<glyph unicode="&#93;" horiz-adv-x="267" d="M33 -173v46h102v810h-102v46h161l0 -902z" />
<glyph unicode="&#94;" horiz-adv-x="500" d="M405 372l-156 250l-155 -250h-63l182 295h74l182 -295z" />
<glyph unicode="&#95;" horiz-adv-x="500" d="M0 -124v50h500l0 -50z" />
<glyph unicode="&#96;" horiz-adv-x="500" d="M250 507l-115 103l54 43l96 -120z" />
<glyph unicode="&#97;" horiz-adv-x="327" d="M220 0v36q-15 -20 -32.5 -31.5q-17.5 -11.5 -43.5 -11.5q-38 0 -59.5 23.5q-21.5 23.5 -31.5 58q-10 34.5 -12 72.5q-2 38 -2 68q0 34 2 75.5q2 41.5 12.5 78q10.5 36.5 33 61q22.5 24.5 62.5 24.5q24 0 40 -9q16 -9 31 -28l0 30h57v-447zM226 226q0 33 -1.5 66q-1.5 33 -8 59q-6.5 26 -19 42q-12.5 16 -34.5 16q-24 0 -37.5 -18.5q-13.5 -18.5 -20 -44q-6.5 -25.5 -7.5 -52.5q-1 -27 -1 -44q0 -28 0.5 -54.5q0.5 -26.5 2.5 -53.5q1 -15 4 -32.5q3 -17.5 9 -33.5q6 -16 17.5 -26.5q11.5 -10.5 31.5 -10.5q22 0 36 15q10 10 16 33q6 23 8.5 49q2.5 26 3 50.5t0.5 39.5z" />
<glyph unicode="&#98;" horiz-adv-x="321" d="M106 417q15 19 31 28q16 9 41 9q41 0 63 -23.5q22 -23.5 32.5 -57.5q10.5 -34 12.5 -72.5q2 -38.5 2 -68.5q0 -36 -2 -78q-2 -42 -12 -77.5q-10 -35.5 -31.5 -59.5q-21.5 -24 -59.5 -24q-26 0 -43.5 11.5q-17.5 11.5 -33.5 31.5l0 -36h-56v729h56zM230 247q0 17 -1 44.5q-1 27.5 -7.5 53.5q-6.5 26 -20 45q-13.5 19 -37.5 19q-22 0 -34.5 -16q-12.5 -16 -19 -42q-6.5 -26 -8 -59q-1.5 -33 -1.5 -66q0 -15 0.5 -39.5q0.5 -24.5 3 -50.5q2.5 -26 8 -49q5.5 -23 16.5 -33q14 -15 36 -15q19 0 31 10.5q12 10.5 18 26.5q6 16 8.5 33.5q2.5 17.5 4.5 32.5q2 26 2.5 52.5t0.5 52.5z" />
<glyph unicode="&#99;" horiz-adv-x="246" d="M226 16q-14 -11 -30.5 -17q-16.5 -6 -33.5 -6q-39 0 -64.5 23.5q-25.5 23.5 -39.5 58q-14 34.5 -19.5 73q-5.5 38.5 -5.5 68.5q0 32 4.5 73q4.5 41 18.5 78q14 37 40 62q26 25 69 25q32 0 61 -17l0 -66q-11 12 -25 21.5q-14 9.5 -31 9.5q-27 0 -42.5 -21.5q-15.5 -21.5 -23.5 -50.5q-8 -29 -10 -59.5q-2 -30.5 -2 -49.5q0 -18 2.5 -47.5q2.5 -29.5 10.5 -58q8 -28.5 23 -49q15 -20.5 41 -20.5q19 0 33 13q14 13 24 27z" />
<glyph unicode="&#100;" horiz-adv-x="321" d="M215 0v36q-15 -20 -33 -31.5q-18 -11.5 -44 -11.5q-39 0 -60 24.5q-21 24.5 -31 59.5q-10 35 -12 74.5q-2 39.5 -2 68.5q0 33 1.5 73.5q1.5 40.5 12 76q10.5 35.5 33 60q22.5 24.5 64.5 24.5q24 0 40 -9q16 -9 31 -28l0 312h56v-729zM220 223q0 35 -1.5 68.5q-1.5 33.5 -8 59.5q-6.5 26 -19 42q-12.5 16 -34.5 16q-24 0 -37 -18.5q-13 -18.5 -19.5 -44.5q-6.5 -26 -7.5 -53q-1 -27 -1 -43q0 -28 0.5 -54.5q0.5 -26.5 2.5 -53.5q1 -15 3.5 -32.5q2.5 -17.5 8.5 -33.5q6 -16 17.5 -26.5q11.5 -10.5 31.5 -10.5q23 0 37 15q10 10 15.5 32.5q5.5 22.5 8 48q2.5 25.5 3 50t0.5 38.5z" />
<glyph unicode="&#101;" horiz-adv-x="313" d="M276 152q-1 -27 -6.5 -55q-5.5 -28 -18 -51.5q-12.5 -23.5 -34 -38q-21.5 -14.5 -54.5 -14.5q-43 0 -69 23.5q-26 23.5 -39.5 58.5q-13.5 35 -17.5 75q-4 40 -4 72q0 30 4.5 70q4.5 40 18 76q13.5 36 38 61q24.5 25 65.5 25q39 0 63 -22.5q24 -22.5 37 -55q13 -32.5 17 -69.5q4 -37 4 -67q0 -7 -0.5 -14q-0.5 -7 -0.5 -14l-189 0v-10q0 -17 2 -43.5q2 -26.5 9.5 -51.5q7.5 -25 21.5 -43q14 -18 38 -18q19 0 30 11q11 11 17 27.5q6 16.5 8.5 35q2.5 18.5 2.5 32.5zM224 260q-1 15 -3 39q-2 24 -8.5 47q-6.5 23 -19 39.5q-12.5 16.5 -33.5 16.5q-22 0 -35 -16.5q-13 -16.5 -20.5 -39q-7.5 -22.5 -10 -47q-2.5 -24.5 -3.5 -39.5z" />
<glyph unicode="&#102;" horiz-adv-x="204" d="M123 395v-395h-56v395h-51v52h51v179q0 21 3.5 41.5q3.5 20.5 12.5 36.5q9 16 25 26q16 10 42 10q27 0 50 -10l0 -62q-9 8 -19 14q-10 6 -22 6q-12 0 -19.5 -5q-7.5 -5 -11 -13q-3.5 -8 -4.5 -18q-1 -10 -1 -19v-186h77l0 -52z" />
<glyph unicode="&#103;" horiz-adv-x="331" d="M281 -49q0 -61 -26 -96q-26 -35 -91 -35q-59 0 -87.5 33.5q-28.5 33.5 -28.5 90.5q0 5 0 9q0 4 1 8l57 0q0 -17 1.5 -33q1.5 -16 8 -28q6.5 -12 18.5 -19.5q12 -7.5 33 -7.5q21 0 32.5 7.5q11.5 7.5 17 20q5.5 12.5 6.5 28q1 15.5 1 31.5v72q-15 -17 -31.5 -24.5q-16.5 -7.5 -39.5 -7.5q-42 0 -65.5 25q-23.5 25 -34 61q-10.5 36 -12.5 76.5q-2 40.5 -2 70.5q0 28 3 66q3 38 14 72.5q11 34.5 33 58.5q22 24 61 24q24 0 41.5 -9.5q17.5 -9.5 32.5 -28.5l0 31h57zM230 250q0 18 -1 44.5q-1 26.5 -7.5 52q-6.5 25.5 -20.5 43.5q-14 18 -39 18q-27 0 -40.5 -23.5q-13.5 -23.5 -19 -56q-5.5 -32.5 -5.5 -65.5q0 -33 0 -51q0 -18 1 -46q1 -28 8 -55q7 -27 21 -46q14 -19 40 -19q19 0 30 10q11 10 17.5 24.5q6.5 14.5 9 31q2.5 16.5 3.5 30.5q2 28 2.5 54.5t0.5 53.5z" />
<glyph unicode="&#104;" horiz-adv-x="330" d="M224 0v321q0 14 -0.5 29.5q-0.5 15.5 -5 28q-4.5 12.5 -15 21q-10.5 8.5 -29.5 8.5q-16 0 -30.5 -7.5q-14.5 -7.5 -22.5 -21.5q-11 -17 -13 -37.5q-2 -20.5 -2 -40.5v-301h-56v729h56v-318q17 19 39 31q22 12 48 12q27 0 44 -9q17 -9 26.5 -25q9.5 -16 13 -36.5q3.5 -20.5 3.5 -44.5l0 -339z" />
<glyph unicode="&#105;" horiz-adv-x="155" d="M119 579q0 -17 -12 -29q-12 -12 -29 -12q-17 0 -29.5 12q-12.5 12 -12.5 29q0 18 12 30.5q12 12.5 30 12.5q17 0 29 -13q12 -13 12 -30zt0 0zM49 0v447h57l0 -447z" />
<glyph unicode="&#106;" horiz-adv-x="159" d="M123 587q0 -17 -12.5 -29q-12.5 -12 -29.5 -12q-17 0 -29.5 12q-12.5 12 -12.5 29q0 18 12 30.5q12 12.5 30 12.5q18 0 30 -12.5q12 -12.5 12 -30.5zt0 0zM52 -180v627h58l0 -627z" />
<glyph unicode="&#107;" horiz-adv-x="310" d="M245 0l-139 214v-214h-56v729h56v-464l112 182h63l-128 -200l163 -247z" />
<glyph unicode="&#108;" horiz-adv-x="157" d="M50 0v729h57l0 -729z" />
<glyph unicode="&#109;" horiz-adv-x="508" d="M458 0h-56v331q0 14 -1.5 27.5q-1.5 13.5 -7 24.5q-5.5 11 -16 18q-10.5 7 -27.5 7q-24 0 -38 -12q-14 -12 -20.5 -30.5q-6.5 -18.5 -8 -40q-1.5 -21.5 -1.5 -39.5v-286h-57v330q0 12 -1 26q-1 14 -6 25.5q-5 11.5 -14.5 19q-9.5 7.5 -25.5 7.5q-26 0 -40.5 -13q-14.5 -13 -21.5 -33q-7 -20 -8.5 -43q-1.5 -23 -1.5 -42v-277h-56v447h56v-37q18 19 39 31.5q21 12.5 48 12.5q29 0 49 -13.5q20 -13.5 33 -38.5q18 24 39 38q21 14 53 14q27 0 44.5 -8.5q17.5 -8.5 28 -23q10.5 -14.5 14.5 -35q4 -20.5 4 -44.5z" />
<glyph unicode="&#110;" horiz-adv-x="330" d="M224 0v321q0 14 -0.5 29.5q-0.5 15.5 -5 28q-4.5 12.5 -15 21q-10.5 8.5 -29.5 8.5q-16 0 -30.5 -7.5q-14.5 -7.5 -22.5 -21.5q-11 -17 -13 -37.5q-2 -20.5 -2 -40.5v-301h-56v447h56v-36q17 19 39 31q22 12 48 12q28 0 45 -10.5q17 -10.5 26.5 -28q9.5 -17.5 12.5 -39.5q3 -22 3 -45l0 -331z" />
<glyph unicode="&#111;" horiz-adv-x="323" d="M289 221q0 -32 -3.5 -71.5q-3.5 -39.5 -16 -74.5q-12.5 -35 -37.5 -58.5q-25 -23.5 -68 -23.5q-43 0 -69 24q-26 24 -39.5 59q-13.5 35 -18 75q-4.5 40 -4.5 73q0 33 4.5 73q4.5 40 18 75q13.5 35 39.5 58.5q26 23.5 69 23.5q43 0 68 -24.5q25 -24.5 38 -60q13 -35.5 16 -76q3 -40.5 3 -72.5zt0 0zM231 224q0 17 -1.5 47q-1.5 30 -8 59q-6.5 29 -20 50.5q-13.5 21.5 -38.5 21.5q-26 0 -40.5 -22q-14.5 -22 -21 -52q-6.5 -30 -8 -60.5q-1.5 -30.5 -1.5 -48.5q0 -18 1.5 -47q1.5 -29 8.5 -57q7 -28 21 -48.5q14 -20.5 40 -20.5q25 0 38.5 21.5q13.5 21.5 20 50.5q6.5 29 8 59t1.5 47z" />
<glyph unicode="&#112;" horiz-adv-x="321" d="M106 417q14 19 30.5 28q16.5 9 40.5 9q41 0 63.5 -23.5q22.5 -23.5 33 -57.5q10.5 -34 12.5 -72.5q2 -38.5 2 -68.5q0 -36 -2 -78q-2 -42 -12 -77.5q-10 -35.5 -31.5 -59.5q-21.5 -24 -59.5 -24q-26 0 -43.5 11.5q-17.5 11.5 -33.5 31.5l0 -216h-56v627h56zM230 247q0 17 -1 44.5q-1 27.5 -7.5 53.5q-6.5 26 -20 45q-13.5 19 -37.5 19q-22 0 -34.5 -16q-12.5 -16 -19 -42q-6.5 -26 -8 -59q-1.5 -33 -1.5 -66q0 -15 0.5 -39.5q0.5 -24.5 3 -50.5q2.5 -26 8 -49q5.5 -23 16.5 -33q14 -15 36 -15q19 0 31 10.5q12 10.5 18 26.5q6 16 8.5 33.5q2.5 17.5 4.5 32.5q2 26 2.5 52.5t0.5 52.5z" />
<glyph unicode="&#113;" horiz-adv-x="327" d="M220 -180v216q-15 -20 -32.5 -31.5q-17.5 -11.5 -43.5 -11.5q-38 0 -59.5 23.5q-21.5 23.5 -31.5 58q-10 34.5 -12 72.5q-2 38 -2 68q0 34 1.5 76q1.5 42 12 78q10.5 36 33 60.5q22.5 24.5 63.5 24.5q24 0 40 -9q16 -9 31 -28l0 30h57v-627zM226 226q0 35 -2 68q-2 33 -8.5 58.5q-6.5 25.5 -19 41q-12.5 15.5 -33.5 15.5q-24 0 -37.5 -18.5q-13.5 -18.5 -20 -44q-6.5 -25.5 -7.5 -52.5q-1 -27 -1 -44q0 -28 0.5 -54.5q0.5 -26.5 2.5 -53.5q1 -15 4 -32.5q3 -17.5 9 -33.5q6 -16 17.5 -26.5q11.5 -10.5 31.5 -10.5q22 0 36 15q10 10 16 33q6 23 8.5 49q2.5 26 3 50.5t0.5 39.5z" />
<glyph unicode="&#114;" horiz-adv-x="195" d="M182 389q-28 0 -43.5 -10.5q-15.5 -10.5 -22.5 -27q-7 -16.5 -8.5 -37.5q-1.5 -21 -1.5 -43v-271h-56v447h56v-58q11 25 29 44q18 19 47 21z" />
<glyph unicode="&#115;" horiz-adv-x="249" d="M219 356q-15 18 -34 32q-19 14 -43 14q-25 0 -40 -17.5q-15 -17.5 -15 -41.5q0 -22 10.5 -38.5q10.5 -16.5 26.5 -31.5q16 -15 35 -29.5q19 -14.5 35 -32q16 -17.5 26.5 -40q10.5 -22.5 10.5 -52.5q0 -26 -9 -49q-9 -23 -24.5 -40q-15.5 -17 -37.5 -27q-22 -10 -49 -10q-23 0 -44 8.5q-21 8.5 -39 22.5l0 66q17 -17 36 -30.5q19 -13.5 43 -13.5q30 0 47.5 20.5q17.5 20.5 17.5 48.5q0 22 -10.5 40q-10.5 18 -26.5 34q-16 16 -35 31.5q-19 15.5 -35 33.5q-16 18 -26.5 39q-10.5 21 -10.5 48q0 49 31 81q31 32 80 32q23 0 42 -7.5q19 -7.5 38 -21.5z" />
<glyph unicode="&#116;" horiz-adv-x="199" d="M123 395v-395h-56v395h-48v52h48v127h56v-127h75l0 -52z" />
<glyph unicode="&#117;" horiz-adv-x="332" d="M282 109q0 -54 -31 -85q-31 -31 -85 -31q-54 0 -85 31q-31 31 -31 85v338h56v-291q0 -18 0.5 -37.5q0.5 -19.5 6 -35.5q5.5 -16 18.5 -26.5q13 -10.5 37 -10.5q23 0 35 11q12 11 17 27.5q5 16.5 5.5 35.5q0.5 19 0.5 36v291l56 0z" />
<glyph unicode="&#118;" horiz-adv-x="276" d="M170 0h-61l-102 447h58l59 -267q5 -24 9 -48q4 -24 7 -48q4 23 7.5 47q3.5 24 8.5 47l55 269l58 0z" />
<glyph unicode="&#119;" horiz-adv-x="439" d="M331 0h-58q-14 94 -29.5 186q-15.5 92 -27.5 186q-3 -18 -4.5 -35q-1.5 -17 -4.5 -35l-49 -302h-58l-90 447h57l50 -271q5 -23 8 -47q3 -24 5 -47q2 23 5.5 46q3.5 23 7.5 46l45 273h58q14 -91 29.5 -182q15.5 -91 26.5 -183q4 23 7 47q3 24 8 48l55 270l57 0z" />
<glyph unicode="&#120;" horiz-adv-x="279" d="M209 0l-49 127q-6 17 -12 33q-6 16 -10 33q-3 -17 -8.5 -33.5q-5.5 -16.5 -11.5 -33.5l-48 -126h-63l102 229l-91 218h62q17 -47 34.5 -93.5q17.5 -46.5 28.5 -95.5q10 50 28.5 96q18.5 46 37.5 93l63 0l-100 -218l100 -229z" />
<glyph unicode="&#121;" horiz-adv-x="289" d="M123 -180h-60l50 192l-106 435h57l56 -248q13 -54 21 -112q3 21 8 41.5q5 20.5 10 42.5l65 276l59 0z" />
<glyph unicode="&#122;" horiz-adv-x="271" d="M86 52h151v-52h-232l176 395h-153v52l238 0z" />
<glyph unicode="&#123;" horiz-adv-x="500" d="M344 -173q-40 0 -66 9.5q-26 9.5 -41 28q-15 18.5 -21 46.5q-6 28 -6 65v185q0 17 -2 32.5q-2 15.5 -8 27.5q-6 12 -17.5 21q-11.5 9 -30.5 14l0 45q36 10 47 34q11 24 11 58v200q0 41 9 67.5q9 26.5 28 41.5q19 15 47.5 21q28.5 6 66.5 6l0 -48q-26 0 -44.5 -4.5q-18.5 -4.5 -29.5 -15q-11 -10.5 -16 -28q-5 -17.5 -5 -44.5v-199q0 -41 -11 -68q-11 -27 -50 -45q38 -19 49.5 -47.5q11.5 -28.5 11.5 -68.5v-190q0 -27 4.5 -45.5q4.5 -18.5 15.5 -30q11 -11.5 29 -16q18 -4.5 46 -4.5l0 -48z" />
<glyph unicode="&#124;" horiz-adv-x="500" d="M222 -250v1000h56l0 -1000z" />
<glyph unicode="&#125;" horiz-adv-x="501" d="M147 -173v48q28 0 46 4.5q18 4.5 29 16q11 11.5 15.5 30q4.5 18.5 4.5 45.5v190q0 40 11.5 68.5q11.5 28.5 49.5 47.5q-39 18 -50 45q-11 27 -11 68v199q0 54 -21.5 72.5q-21.5 18.5 -73.5 19.5l0 48q38 0 66.5 -6q28.5 -6 47 -21q18.5 -15 28 -41.5q9.5 -26.5 9.5 -67.5v-200q0 -34 11 -58q11 -24 47 -34l0 -45q-19 -5 -30.5 -14q-11.5 -9 -17.5 -21q-6 -12 -8 -27.5q-2 -15.5 -2 -32.5v-185q0 -37 -6 -65q-6 -28 -21 -46.5q-15 -18.5 -41 -28q-26 -9.5 -66 -9.5z" />
<glyph unicode="&#126;" horiz-adv-x="667" d="M573 700q-11 -21 -24 -40q-13 -19 -30 -34q-17 -15 -38 -23.5q-21 -8.5 -46 -8.5q-28 0 -55 11q-27 11 -53 24q-26 13 -52 24q-26 11 -52 11q-17 0 -31 -6.5q-14 -6.5 -25.5 -17.5q-11.5 -11 -21 -24.5q-9.5 -13.5 -16.5 -26.5l-35 22q10 21 22.5 40.5q12.5 19.5 28 34.5q15.5 15 36 24q20.5 9 46.5 9q29 0 56.5 -11q27.5 -11 54 -24q26.5 -13 52 -24q25.5 -11 51.5 -11q36 0 57.5 21.5q21.5 21.5 38.5 50.5z" />
<glyph unicode="&#160;" horiz-adv-x="233" />
<glyph unicode="&#161;" horiz-adv-x="237" d="M163 409q0 -19 -13 -32q-13 -13 -32 -13q-18 0 -31.5 13.5q-13.5 13.5 -13.5 31.5q0 19 13 32q13 13 32 13q19 0 32 -13q13 -13 13 -32zt0 0zM88 -220v500h60l0 -500z" />
<glyph unicode="&#162;" horiz-adv-x="366" d="M278 136q-17 -14 -41 -19l0 -92h-49v92q-33 12 -53.5 36.5q-20.5 24.5 -31.5 54.5q-11 30 -15 63.5q-4 33.5 -4 64.5q0 45 8 95q8 50 32 89q14 22 27.5 32q13.5 10 36.5 18l0 83h49v-82q19 -3 41 -13l0 -67q-11 12 -25.5 21q-14.5 9 -31.5 9q-27 0 -42 -21q-15 -21 -23 -50.5q-8 -29.5 -10 -60q-2 -30.5 -2 -49.5q0 -18 2.5 -47.5q2.5 -29.5 10.5 -57.5q8 -28 23 -48.5q15 -20.5 40 -20.5q20 0 33.5 13q13.5 13 24.5 27z" />
<glyph unicode="&#163;" horiz-adv-x="366" d="M344 72q-2 -20 -10 -39q-8 -19 -20 -30q-11 -10 -25 -16q-14 -6 -31 -6q-14 0 -28.5 5q-14.5 5 -27.5 13l-34 22q-19 12 -29 15.5q-10 3.5 -16 3.5q-14 0 -26 -12q-5 -5 -9.5 -12.5q-4.5 -7.5 -6.5 -15.5l-52 30q13 28 35 48q21 21 51 21q6 0 16 -2q18 27 22 49.5q4 22.5 4 30.5q0 30 -13 61q-13 31 -35 60l-79 0v42h59q-8 16 -16 34q-8 18 -13 32q-17 47 -17 99q0 31 9 66q9 35 38 64q19 19 46 30q27 11 60 11q34 0 57 -11.5q23 -11.5 37 -25.5q17 -17 30 -44.5q13 -27.5 14 -63.5l-58 -12q-1 17 -7.5 39.5q-6.5 22.5 -20.5 36.5q-7 7 -20 14q-13 7 -35 7q-21 0 -35 -6.5q-14 -6.5 -22 -14.5q-9 -9 -19.5 -29q-10.5 -20 -10.5 -58q0 -24 4.5 -45.5q4.5 -21.5 12.5 -42.5q7 -20 17.5 -42q10.5 -22 18.5 -38l105 0v-42h-84q22 -32 29.5 -59q7.5 -27 7.5 -49q0 -16 -2.5 -32.5q-2.5 -16.5 -9.5 -33.5q-2 -4 -8 -16q-6 -12 -17 -27l43 -30q18 -11 34 -11q17 0 26 17q4 8 6 17q2 9 3 15z" />
<glyph unicode="&#164;" horiz-adv-x="667" d="M103 355q0 42 13.5 76q13.5 34 38.5 66l-93 93l33 33l93 -93q33 26 67.5 40q34.5 14 77.5 14q42 0 77.5 -13.5q35.5 -13.5 67.5 -39.5l92 91l33 -32l-92 -92q25 -33 38.5 -67.5q13.5 -34.5 13.5 -76.5q0 -42 -13.5 -76q-13.5 -34 -38.5 -66l93 -93l-32 -33l-93 93q-32 -25 -67.5 -39q-35.5 -14 -77.5 -14q-41 0 -76.5 14q-35.5 14 -67.5 38l-92 -92l-33 33l92 92q-26 32 -40 67.5q-14 35.5 -14 76.5zt0 0zM156 355q0 -36 14 -68.5q14 -32.5 38 -57q24 -24.5 56.5 -38.5q32.5 -14 68.5 -14q37 0 69.5 14q32.5 14 56.5 38q24 24 38 56.5q14 32.5 14 69.5q0 37 -14 69.5q-14 32.5 -38 56.5q-24 24 -56.5 38q-32.5 14 -69.5 14q-36 0 -68.5 -14q-32.5 -14 -56.5 -38.5q-24 -24.5 -38 -57t-14 -68.5z" />
<glyph unicode="&#165;" horiz-adv-x="366" d="M215 269v-269h-57v269h-142v42h136l-23 65h-113v42h99l-86 249h64l63 -195q19 -58 30 -119q5 31 13 61.5q8 30.5 17 60.5l57 192h64l-81 -249h94v-42h-108l-21 -65h129l0 -42z" />
<glyph unicode="&#166;" horiz-adv-x="500" d="M222 345v405h53v-405zM222 -250v405h53l0 -405z" />
<glyph unicode="&#167;" horiz-adv-x="367" d="M252 603q-2 15 -5.5 30q-3.5 15 -11.5 27q-8 12 -20 19.5q-12 7.5 -30 7.5q-18 0 -30.5 -8q-12.5 -8 -21 -20.5q-8.5 -12.5 -12.5 -28.5q-4 -16 -4 -31q0 -41 21 -65.5q21 -24.5 50.5 -43.5q29.5 -19 59.5 -38q30 -19 48 -47q17 -27 23 -61.5q6 -34.5 6 -66.5q0 -26 -4 -52.5q-4 -26.5 -14.5 -50.5q-10.5 -24 -28 -42.5q-17.5 -18.5 -45.5 -27.5q39 -24 57 -59.5q18 -35.5 18 -83.5q0 -28 -8 -53.5q-8 -25.5 -24 -45q-16 -19.5 -39 -31q-23 -11.5 -53 -11.5q-38 0 -67.5 19.5q-29.5 19.5 -44.5 54.5q-8 17 -10.5 36q-2.5 19 -4.5 38l58 0q1 -17 4 -33.5q3 -16.5 10.5 -30q7.5 -13.5 20.5 -22q13 -8.5 33 -8.5q18 0 31.5 8q13.5 8 21.5 21q8 13 12 29q4 16 4 32q0 39 -15.5 61q-15.5 22 -39 37q-23.5 15 -50.5 28.5q-27 13.5 -50.5 36q-23.5 22.5 -39 59q-15.5 36.5 -15.5 97.5q0 27 5 54.5q5 27.5 16.5 51.5q11.5 24 31 42q19.5 18 48.5 26q-40 26 -61.5 61q-21.5 35 -21.5 85q0 28 8.5 53q8.5 25 25 43.5q16.5 18.5 40 29.5q23.5 11 52.5 11q33 0 61 -15.5q28 -15.5 45 -44.5q11 -18 14.5 -37.5q3.5 -19.5 5.5 -39.5zM268 269q0 22 -2.5 48q-2.5 26 -11 49q-8.5 23 -25.5 38.5q-17 15.5 -46 15.5q-26 0 -42.5 -14q-16.5 -14 -25.5 -35q-9 -21 -12.5 -45.5q-3.5 -24.5 -3.5 -44.5q0 -21 3 -45.5q3 -24.5 12 -45.5q9 -21 25.5 -35q16.5 -14 43.5 -14q27 0 43.5 12q16.5 12 26 30.5q9.5 18.5 12.5 41t3 44.5z" />
<glyph unicode="&#168;" horiz-adv-x="500" d="M357 557q0 -18 -12.5 -31q-12.5 -13 -30.5 -13q-18 0 -30.5 13q-12.5 13 -12.5 31q0 18 12.5 30.5q12.5 12.5 30.5 12.5q18 0 30.5 -12.5q12.5 -12.5 12.5 -30.5zt0 0zM229 557q0 -18 -12.5 -31q-12.5 -13 -30.5 -13q-18 0 -30.5 13q-12.5 13 -12.5 31q0 18 12.5 30.5q12.5 12.5 30.5 12.5q18 0 30.5 -12.5t12.5 -30.5z" />
<glyph unicode="&#169;" horiz-adv-x="756" d="M723 333q0 -71 -27 -134q-27 -63 -74 -110q-47 -47 -110 -74q-63 -27 -134 -27q-71 0 -134 27q-63 27 -110 74q-47 47 -74 110q-27 63 -27 134q0 72 27 135q27 63 74 110q47 47 110 74q63 27 135 27q71 0 134 -27.5q63 -27.5 109.5 -74.5q46.5 -47 73.5 -110q27 -63 27 -134zt0 0zM683 333q0 63 -23.5 119.5q-23.5 56.5 -64.5 98.5q-41 42 -96.5 67q-55.5 25 -119.5 25q-64 0 -120 -24.5q-56 -24.5 -97 -66.5q-41 -42 -65 -98.5q-24 -56.5 -24 -120.5q0 -63 24 -119q24 -56 65 -98.5q41 -42.5 97 -67q56 -24.5 119 -24.5q64 0 119.5 24.5q55.5 24.5 96.5 66.5q41 42 65 98.5q24 56.5 24 119.5zt0 0zM434 147q-29 -19 -61 -19q-24 0 -45 11q-21 11 -36 30q-13 16 -20.5 35.5q-7.5 19.5 -11 40.5q-3.5 21 -4.5 42.5q-1 21.5 -1 41.5q0 30 4 67q4 37 17 68.5q13 31.5 37 53q24 21.5 64 21.5q19 0 28 -4.5q9 -4.5 26 -9.5l3 -1v-55q-12 8 -25.5 15q-13.5 7 -28.5 7q-26 0 -40.5 -17.5q-14.5 -17.5 -21.5 -42q-7 -24.5 -8.5 -51.5q-1.5 -27 -1.5 -45q0 -17 1 -44q1 -27 7.5 -52.5q6.5 -25.5 20.5 -44q14 -18.5 39 -18.5q16 0 30.5 7.5q14.5 7.5 27.5 15.5z" />
<glyph unicode="&#170;" horiz-adv-x="240" d="M150 372v18q-19 -22 -47 -22q-27 0 -41.5 17q-14.5 17 -21.5 41q-7 24 -8 50.5q-1 26.5 -1 45.5q0 20 1 46q1 26 8.5 49q7.5 23 22.5 38.5q15 15.5 44 15.5q27 0 43 -19l0 15h43v-295zM35 297v33h158v-33zM153 519q0 19 -0.5 39.5q-0.5 20.5 -4.5 37.5q-4 17 -11.5 28.5q-7.5 11.5 -21.5 11.5q-15 0 -23 -13q-8 -13 -12 -32q-4 -19 -4.5 -39q-0.5 -20 -0.5 -35q0 -14 0.5 -33.5q0.5 -19.5 4.5 -37.5q4 -18 12 -30.5q8 -12.5 22 -12.5q12 0 23 9q6 6 9 20.5q3 14.5 4.5 31q1.5 16.5 2 31.5t0.5 24z" />
<glyph unicode="&#171;" horiz-adv-x="325" d="M253 43l-108 194l108 188l39 -21l-95 -167l95 -171zM142 43l-109 194l109 188l38 -21l-95 -167l95 -171z" />
<glyph unicode="&#172;" horiz-adv-x="500" d="M410 0v215h-377v52h434l0 -267z" />
<glyph unicode="&#173;" horiz-adv-x="238" d="M50 233v58h138l0 -58z" />
<glyph unicode="&#174;" horiz-adv-x="756" d="M431 131l-85 176v-176h-49v405h53q63 0 90 -24q27 -24 27 -88q0 -19 -4 -37q-4 -18 -13 -32.5q-9 -14.5 -23.5 -24q-14.5 -9.5 -35.5 -10.5l91 -189zM367 363q33 0 41 17.5q8 17.5 8 46.5q0 32 -9.5 48.5q-9.5 16.5 -45.5 16.5h-15v-129zM683 333q0 63 -23.5 119.5q-23.5 56.5 -64.5 98.5q-41 42 -96.5 67q-55.5 25 -119.5 25q-64 0 -120 -24.5q-56 -24.5 -97 -66.5q-41 -42 -65 -98.5q-24 -56.5 -24 -120.5q0 -63 24 -119q24 -56 65 -98.5q41 -42.5 97 -67q56 -24.5 119 -24.5q64 0 119.5 24.5q55.5 24.5 96.5 66.5q41 42 65 98.5q24 56.5 24 119.5zt0 0zM723 333q0 -71 -27 -134q-27 -63 -74 -110q-47 -47 -110 -74q-63 -27 -134 -27q-71 0 -134 27q-63 27 -110 74q-47 47 -74 110q-27 63 -27 134q0 72 27 135q27 63 74 110q47 47 110 74q63 27 135 27q71 0 134 -27.5q63 -27.5 109.5 -74.5q46.5 -47 73.5 -110t27 -134z" />
<glyph unicode="&#175;" horiz-adv-x="500" d="M138 520v55h224l0 -55z" />
<glyph unicode="&#176;" horiz-adv-x="500" d="M388 537q0 -28 -11 -52.5q-11 -24.5 -30 -43q-19 -18.5 -44 -29q-25 -10.5 -53 -10.5q-28 0 -53 10.5q-25 10.5 -44 29q-19 18.5 -30 43q-11 24.5 -11 52.5q0 28 11 53q11 25 30 43q19 18 44 28.5q25 10.5 53 10.5q28 0 53 -10.5q25 -10.5 44 -28.5q19 -18 30 -43q11 -25 11 -53zt0 0zM349 537q0 42 -29 69.5q-29 27.5 -70 27.5q-41 0 -70 -27.5q-29 -27.5 -29 -69.5q0 -20 8 -38q8 -18 21.5 -31q13.5 -13 31.5 -20.5q18 -7.5 38 -7.5q20 0 38 7.5q18 7.5 31.5 20.5q13.5 13 21.5 31t8 38z" />
<glyph unicode="&#177;" horiz-adv-x="500" d="M278 342v-176h-56v176h-189v53h189v176h56v-176h189v-53zM33 71v53h434l0 -53z" />
<glyph unicode="&#178;" horiz-adv-x="252" d="M39 553q0 22 3 44q3 22 12 38.5q9 16.5 26 27q17 10.5 45 10.5q44 0 66.5 -26q22.5 -26 22.5 -68q0 -42 -17.5 -81.5q-17.5 -39.5 -37.5 -75.5l-62 -115h112v-41h-179l88 172q17 32 34 68.5q17 36.5 17 74.5q0 21 -9.5 36.5q-9.5 15.5 -32.5 15.5q-15 0 -24 -7q-9 -7 -13.5 -17.5q-4.5 -10.5 -6 -23q-1.5 -12.5 -1.5 -24.5q0 -5 1 -8z" />
<glyph unicode="&#179;" horiz-adv-x="252" d="M40 569q0 20 4 39q4 19 13.5 33.5q9.5 14.5 25.5 23q16 8.5 39 8.5q44 0 65.5 -25.5q21.5 -25.5 21.5 -67.5q0 -32 -8 -53q-8 -21 -35 -39q32 -18 40 -46q8 -28 8 -62q0 -24 -4 -45.5q-4 -21.5 -14 -37.5q-10 -16 -27.5 -25.5q-17.5 -9.5 -45.5 -9.5q-29 0 -46 9.5q-17 9.5 -26.5 26q-9.5 16.5 -12.5 38q-3 21.5 -3 45.5l44 0q0 -13 0.5 -26.5q0.5 -13.5 5 -25q4.5 -11.5 13 -19q8.5 -7.5 25.5 -7.5q16 0 25 7.5q9 7.5 14 18.5q5 11 6.5 25q1.5 14 1.5 26q0 36 -13 61.5q-13 25.5 -54 25.5h-21v38q21 0 36.5 2q15.5 2 26 8.5q10.5 6.5 15.5 20.5q5 14 5 38q0 23 -8 40q-8 17 -34 17q-15 0 -23 -5q-8 -5 -12 -14q-4 -9 -5 -20q-1 -11 -1 -23z" />
<glyph unicode="&#180;" horiz-adv-x="500" d="M250 507l-35 26l96 120l54 -43z" />
<glyph unicode="&#181;" horiz-adv-x="500" d="M389 0v94q-23 -50 -56.5 -78.5q-33.5 -28.5 -90.5 -28.5q-45 0 -78 19.5q-33 19.5 -56 57.5l0 -244h-56v627h56v-244q0 -28 2.5 -54.5q2.5 -26.5 16.5 -51.5q17 -32 49.5 -48.5q32.5 -16.5 67.5 -16.5q38 0 67.5 18q29.5 18 49.5 50q17 28 22.5 55q5.5 27 5.5 59v233h56l0 -447z" />
<glyph unicode="&#182;" horiz-adv-x="556" d="M431 621v-721h-50v721h-111v-721h-51v413h-16q-39 0 -72.5 12.5q-33.5 12.5 -58 35.5q-24.5 23 -39 55q-14.5 32 -14.5 72q0 49 17.5 83q17.5 34 47.5 55.5q30 21.5 69.5 31q39.5 9.5 83.5 9.5h250l0 -46z" />
<glyph unicode="&#183;" horiz-adv-x="204" d="M160 343q0 -24 -17 -41q-17 -17 -41 -17q-24 0 -41.5 17q-17.5 17 -17.5 41q0 25 17 42q17 17 42 17q24 0 41 -17.5t17 -41.5z" />
<glyph unicode="&#184;" horiz-adv-x="493" d="M226 -185l-36 21l67 127l46 -25z" />
<glyph unicode="&#185;" horiz-adv-x="253" d="M110 267v359h-55v41h100l0 -400z" />
<glyph unicode="&#186;" horiz-adv-x="240" d="M207 518q0 -22 -2.5 -48q-2.5 -26 -11 -48.5q-8.5 -22.5 -25.5 -38q-17 -15.5 -46 -15.5q-29 0 -46.5 15.5q-17.5 15.5 -26.5 38.5q-9 23 -12 49.5q-3 26.5 -3 48.5q0 22 3 48q3 26 12.5 49q9.5 23 26.5 38.5q17 15.5 46 15.5q29 0 46 -16q17 -16 25.5 -39q8.5 -23 11 -49.5q2.5 -26.5 2.5 -48.5zt0 0zM37 297v33h167v-33zM163 519q0 10 -1 29q-1 19 -5 37.5q-4 18.5 -12.5 32q-8.5 13.5 -23.5 13.5q-16 0 -25 -14q-9 -14 -13 -32.5q-4 -18.5 -5 -38q-1 -19.5 -1 -30.5q0 -11 1 -29.5q1 -18.5 5.5 -36q4.5 -17.5 13 -30.5q8.5 -13 24.5 -13q15 0 23.5 13.5q8.5 13.5 12.5 32q4 18.5 5 37t1 29.5z" />
<glyph unicode="&#187;" horiz-adv-x="325" d="M184 43l-39 23l95 171l-95 167l39 21l108 -188zM72 43l-39 23l95 171l-95 167l39 21l108 -188z" />
<glyph unicode="&#188;" horiz-adv-x="622" d="M556 106v-106h-45v106h-109v40l110 254h44v-255h31v-39zM111 267v359h-55v41h100v-400zM511 145q0 41 0 81.5q0 40.5 2 83.5q-15 -42 -32.5 -82.5q-17.5 -40.5 -34.5 -82.5zM191 0h-46l289 667l46 0z" />
<glyph unicode="&#189;" horiz-adv-x="622" d="M408 287q0 16 0.5 32q0.5 16 5.5 31q8 28 29.5 42q21.5 14 50.5 14q44 0 66.5 -26q22.5 -26 22.5 -68q0 -38 -16 -75q-16 -37 -36 -75l-65 -121h112v-41h-179l88 172q17 32 34 68.5q17 36.5 17 74.5q0 21 -9.5 36.5q-9.5 15.5 -32.5 15.5q-15 0 -24 -7q-9 -7 -13.5 -17.5q-4.5 -10.5 -6 -23q-1.5 -12.5 -1.5 -24.5q0 -5 1 -8zM191 0h-46l289 667h46zM111 267v359h-55v41h100l0 -400z" />
<glyph unicode="&#190;" horiz-adv-x="621" d="M555 106v-106h-45v106h-110v40l111 254h44v-255h30v-39zM40 569q0 20 4 39q4 19 13.5 33.5q9.5 14.5 25.5 23q16 8.5 39 8.5q44 0 65.5 -25.5q21.5 -25.5 21.5 -67.5q0 -32 -8 -53q-8 -21 -35 -39q32 -18 40 -46q8 -28 8 -62q0 -24 -4 -45.5q-4 -21.5 -14 -37.5q-10 -16 -27.5 -25.5q-17.5 -9.5 -45.5 -9.5q-29 0 -46 9.5q-17 9.5 -26.5 26q-9.5 16.5 -12.5 38q-3 21.5 -3 45.5l44 0q0 -13 0.5 -26.5q0.5 -13.5 5 -25q4.5 -11.5 13 -19q8.5 -7.5 25.5 -7.5q16 0 25 7.5q9 7.5 14 18.5q5 11 6.5 25q1.5 14 1.5 26q0 36 -13 61.5q-13 25.5 -54 25.5h-21v38q21 0 36.5 2q15.5 2 26 8.5q10.5 6.5 15.5 20.5q5 14 5 38q0 23 -8 40q-8 17 -34 17q-15 0 -23 -5q-8 -5 -12 -14q-4 -9 -5 -20q-1 -11 -1 -23zM510 145q0 42 0 82.5q0 40.5 2 82.5q-16 -42 -33.5 -82.5q-17.5 -40.5 -34.5 -82.5zM191 0h-46l289 667l46 0z" />
<glyph unicode="&#191;" horiz-adv-x="331" d="M240 409q0 -19 -13 -32q-13 -13 -32 -13q-19 0 -32 13q-13 13 -13 32q0 19 13 32q13 13 32 13q19 0 32 -13q13 -13 13 -32zt0 0zM278 -98q0 -57 -26.5 -94q-26.5 -37 -88.5 -37q-25 0 -48.5 9.5q-23.5 9.5 -38.5 29.5q-18 25 -20.5 56q-2.5 31 -2.5 60q0 33 2 67q2 34 13 61.5q11 27.5 34 45.5q23 18 66 20l0 161h59v-215q-8 0 -16.5 0.5q-8.5 0.5 -16.5 0.5q-11 0 -25.5 -1.5q-14.5 -1.5 -25.5 -7.5q-13 -8 -19 -25.5q-6 -17.5 -8.5 -38q-2.5 -20.5 -2.5 -41.5q0 -21 0 -34q0 -14 1 -30.5q1 -16.5 6.5 -30.5q5.5 -14 16 -23.5q10.5 -9.5 29.5 -9.5q18 0 28.5 8.5q10.5 8.5 16 21.5q5.5 13 7 29q1.5 16 1.5 32v33l59 0z" />
<glyph unicode="&#192;" horiz-adv-x="325" d="M258 0l-25 137h-141l-25 -137h-66l132 667h58l133 -667zM179 426q-8 39 -12.5 78q-4.5 39 -6.5 79q-7 -100 -24 -197q-17 -97 -34 -195l121 0zM170 714l-115 103l54 43l96 -120z" />
<glyph unicode="&#193;" horiz-adv-x="325" d="M258 0l-25 137h-141l-25 -137h-66l132 667h58l133 -667zM179 426q-8 39 -12.5 78q-4.5 39 -6.5 79q-7 -100 -24 -197q-17 -97 -34 -195l121 0zM163 714l-35 26l96 120l54 -43z" />
<glyph unicode="&#194;" horiz-adv-x="325" d="M258 0l-25 137h-141l-25 -137h-66l132 667h58l133 -667zM179 426q-8 39 -12.5 78q-4.5 39 -6.5 79q-7 -100 -24 -197q-17 -97 -34 -195l121 0zM236 714l-74 69l-74 -69l-38 38l112 107l114 -107z" />
<glyph unicode="&#195;" horiz-adv-x="325" d="M258 0l-25 137h-141l-25 -137h-66l132 667h58l133 -667zM179 426q-8 39 -12.5 78q-4.5 39 -6.5 79q-7 -100 -24 -197q-17 -97 -34 -195l121 0zM278 802q-1 -15 -5.5 -29.5q-4.5 -14.5 -12.5 -26q-8 -11.5 -20.5 -19q-12.5 -7.5 -29.5 -7.5q-13 0 -25.5 5.5q-12.5 5.5 -24 11.5q-11.5 6 -21.5 11.5q-10 5.5 -19 5.5q-11 0 -13.5 -8.5q-2.5 -8.5 -2.5 -16.5l-56 0q3 30 20 53.5q17 23.5 50 23.5q12 0 23.5 -5q11.5 -5 23 -11q11.5 -6 21.5 -11q10 -5 18 -5q12 0 14.5 9.5q2.5 9.5 2.5 18.5z" />
<glyph unicode="&#196;" horiz-adv-x="325" d="M258 0l-25 137h-141l-25 -137h-66l132 667h58l133 -667zM179 426q-8 39 -12.5 78q-4.5 39 -6.5 79q-7 -100 -24 -197q-17 -97 -34 -195l121 0zM267 764q0 -18 -12.5 -31q-12.5 -13 -30.5 -13q-18 0 -30.5 13q-12.5 13 -12.5 31q0 18 12.5 30.5q12.5 12.5 30.5 12.5q18 0 30.5 -12.5q12.5 -12.5 12.5 -30.5zt0 0zM139 764q0 -18 -12.5 -31q-12.5 -13 -30.5 -13q-18 0 -30.5 13q-12.5 13 -12.5 31q0 18 12.5 30.5q12.5 12.5 30.5 12.5q18 0 30.5 -12.5t12.5 -30.5z" />
<glyph unicode="&#197;" horiz-adv-x="325" d="M258 0l-25 137h-141l-25 -137h-66l132 667h58l133 -667zM179 426q-8 39 -12.5 78q-4.5 39 -6.5 79q-7 -100 -24 -197q-17 -97 -34 -195l121 0zM243 794q0 -33 -23.5 -56.5q-23.5 -23.5 -56.5 -23.5q-33 0 -56.5 23.5q-23.5 23.5 -23.5 56.5q0 33 23.5 56.5q23.5 23.5 56.5 23.5q33 0 56.5 -23.5q23.5 -23.5 23.5 -56.5zt0 0zM203 794q0 17 -11.5 28.5q-11.5 11.5 -28.5 11.5q-17 0 -28.5 -11.5q-11.5 -11.5 -11.5 -28.5q0 -17 11.5 -28.5q11.5 -11.5 28.5 -11.5q17 0 28.5 11.5t11.5 28.5z" />
<glyph unicode="&#198;" horiz-adv-x="462" d="M264 0l-22 137h-151l-24 -137h-66l131 667h222l11 -57h-143l42 -235h135l11 -57h-136l47 -261h141l9 -57zM186 472q-5 31 -9 61.5q-4 30.5 -6 61.5q-5 -31 -9.5 -61q-4.5 -30 -9.5 -61l-51 -283l132 0z" />
<glyph unicode="&#199;" horiz-adv-x="320" d="M302 19q-20 -13 -42 -20.5q-22 -7.5 -45 -7.5q-36 0 -67.5 18q-31.5 18 -52.5 47q-19 26 -30.5 58.5q-11.5 32.5 -17.5 67q-6 34.5 -7.5 69q-1.5 34.5 -1.5 65.5q0 31 2 69.5q2 38.5 8 78.5q6 40 18 78q12 38 32.5 68q20.5 30 50.5 48q30 18 73 18q21 0 41.5 -5q20.5 -5 38.5 -16l0 -68q-17 11 -36 20q-19 9 -41 9q-30 0 -51 -15q-21 -15 -34.5 -39q-13.5 -24 -21.5 -54.5q-8 -30.5 -11.5 -61.5q-3.5 -31 -4.5 -60q-1 -29 -1 -50q0 -24 1.5 -58q1.5 -34 6.5 -68.5q5 -34.5 13.5 -66q8.5 -31.5 22.5 -51.5q28 -41 75 -41q23 0 43.5 9q20.5 9 38.5 21zM178 -185l-36 21l67 127l46 -25z" />
<glyph unicode="&#200;" horiz-adv-x="301" d="M55 0v667h208v-57h-146v-235h142v-57h-142v-261h146v-57zM180 714l-115 103l54 43l96 -120z" />
<glyph unicode="&#201;" horiz-adv-x="301" d="M55 0v667h208v-57h-146v-235h142v-57h-142v-261h146v-57zM146 714l-35 26l96 120l54 -43z" />
<glyph unicode="&#202;" horiz-adv-x="301" d="M55 0v667h208v-57h-146v-235h142v-57h-142v-261h146v-57zM238 714l-74 69l-74 -69l-38 38l112 107l114 -107z" />
<glyph unicode="&#203;" horiz-adv-x="301" d="M55 0v667h208v-57h-146v-235h142v-57h-142v-261h146v-57zM272 764q0 -18 -12.5 -31q-12.5 -13 -30.5 -13q-18 0 -30.5 13q-12.5 13 -12.5 31q0 18 12.5 30.5q12.5 12.5 30.5 12.5q18 0 30.5 -12.5q12.5 -12.5 12.5 -30.5zt0 0zM144 764q0 -18 -12.5 -31q-12.5 -13 -30.5 -13q-18 0 -30.5 13q-12.5 13 -12.5 31q0 18 12.5 30.5q12.5 12.5 30.5 12.5q18 0 30.5 -12.5t12.5 -30.5z" />
<glyph unicode="&#204;" horiz-adv-x="171" d="M55 0v667h62v-667zM86 714l-115 103l54 43l96 -120z" />
<glyph unicode="&#205;" horiz-adv-x="171" d="M55 0v667h62v-667zM86 714l-35 26l96 120l54 -43z" />
<glyph unicode="&#206;" horiz-adv-x="171" d="M55 0v667h62v-667zM159 714l-74 69l-74 -69l-38 38l112 107l114 -107z" />
<glyph unicode="&#207;" horiz-adv-x="171" d="M55 0v667h62v-667zM193 764q0 -18 -12.5 -31q-12.5 -13 -30.5 -13q-18 0 -30.5 13q-12.5 13 -12.5 31q0 18 12.5 30.5q12.5 12.5 30.5 12.5q18 0 30.5 -12.5q12.5 -12.5 12.5 -30.5zt0 0zM65 764q0 -18 -12.5 -31q-12.5 -13 -30.5 -13q-18 0 -30.5 13q-12.5 13 -12.5 31q0 18 12.5 30.5q12.5 12.5 30.5 12.5q18 0 30.5 -12.5t12.5 -30.5z" />
<glyph unicode="&#208;" horiz-adv-x="371" d="M133 667q45 0 77.5 -9q32.5 -9 55 -29q22.5 -20 36 -51.5q13.5 -31.5 21.5 -76.5q7 -41 8.5 -82.5q1.5 -41.5 1.5 -83.5q0 -21 -0.5 -49q-0.5 -28 -2.5 -57q-2 -29 -5.5 -57q-3.5 -28 -9.5 -47q-22 -69 -64 -97q-42 -28 -114 -28h-82v321h-47v50h47v296zM146 57q22 0 41.5 5.5q19.5 5.5 35.5 22.5q18 19 27.5 46q9.5 27 14 56.5q4.5 29.5 5 59q0.5 29.5 0.5 53.5q0 20 -0.5 51.5q-0.5 31.5 -2.5 64.5q-2 33 -5.5 63.5q-3.5 30.5 -9.5 49.5q-14 43 -38 62q-24 19 -70 19h-27v-239h90v-50h-90l0 -264z" />
<glyph unicode="&#209;" horiz-adv-x="387" d="M278 0l-148 440q-16 48 -27 94q6 -53 6 -105v-429h-54v667h54l151 -453q7 -20 12.5 -39.5q5.5 -19.5 11.5 -39.5q-6 40 -6 82v450h54v-667zM309 802q-1 -15 -5.5 -29.5q-4.5 -14.5 -12.5 -26q-8 -11.5 -20.5 -19q-12.5 -7.5 -29.5 -7.5q-13 0 -25.5 5.5q-12.5 5.5 -24 11.5q-11.5 6 -21.5 11.5q-10 5.5 -19 5.5q-11 0 -13.5 -8.5q-2.5 -8.5 -2.5 -16.5l-56 0q3 30 20 53.5q17 23.5 50 23.5q12 0 23.5 -5q11.5 -5 23 -11q11.5 -6 21.5 -11q10 -5 18 -5q12 0 14.5 9.5q2.5 9.5 2.5 18.5z" />
<glyph unicode="&#210;" horiz-adv-x="404" d="M366 336q0 -28 -1 -64.5q-1 -36.5 -6 -75q-5 -38.5 -15 -75q-10 -36.5 -28 -65.5q-18 -29 -45.5 -47q-27.5 -18 -67.5 -18q-39 0 -66.5 17.5q-27.5 17.5 -45.5 46.5q-18 29 -29 65.5q-11 36.5 -16 74.5q-5 38 -6.5 74q-1.5 36 -1.5 64q0 27 1.5 63.5q1.5 36.5 7 74.5q5.5 38 16 75q10.5 37 28.5 65.5q18 28.5 45 46.5q27 18 66 18q39 0 66.5 -17.5q27.5 -17.5 46 -46q18.5 -28.5 28.5 -64.5q10 -36 15.5 -74q5.5 -38 6.5 -74q1 -36 1 -64zt0 0zM303 358q0 17 -0.5 42.5q-0.5 25.5 -3.5 54.5q-3 29 -9 57.5q-6 28.5 -17 51.5q-11 23 -28 37.5q-17 14.5 -42 14.5q-26 0 -43.5 -16q-17.5 -16 -29 -41.5q-11.5 -25.5 -17.5 -57q-6 -31.5 -8.5 -63q-2.5 -31.5 -3 -59q-0.5 -27.5 -0.5 -45.5q0 -17 0.5 -45q0.5 -28 3 -59.5q2.5 -31.5 8.5 -63.5q6 -32 17.5 -57.5q11.5 -25.5 29 -41.5q17.5 -16 43.5 -16q28 0 45.5 16q17.5 16 27.5 40q10 24 14.5 51q4.5 27 6.5 48q4 38 5 76q1 38 1 76zt0 0zM220 714l-115 103l54 43l96 -120z" />
<glyph unicode="&#211;" horiz-adv-x="404" d="M366 336q0 -28 -1 -64.5q-1 -36.5 -6 -75q-5 -38.5 -15 -75q-10 -36.5 -28 -65.5q-18 -29 -45.5 -47q-27.5 -18 -67.5 -18q-39 0 -66.5 17.5q-27.5 17.5 -45.5 46.5q-18 29 -29 65.5q-11 36.5 -16 74.5q-5 38 -6.5 74q-1.5 36 -1.5 64q0 27 1.5 63.5q1.5 36.5 7 74.5q5.5 38 16 75q10.5 37 28.5 65.5q18 28.5 45 46.5q27 18 66 18q39 0 66.5 -17.5q27.5 -17.5 46 -46q18.5 -28.5 28.5 -64.5q10 -36 15.5 -74q5.5 -38 6.5 -74q1 -36 1 -64zt0 0zM303 358q0 17 -0.5 42.5q-0.5 25.5 -3.5 54.5q-3 29 -9 57.5q-6 28.5 -17 51.5q-11 23 -28 37.5q-17 14.5 -42 14.5q-26 0 -43.5 -16q-17.5 -16 -29 -41.5q-11.5 -25.5 -17.5 -57q-6 -31.5 -8.5 -63q-2.5 -31.5 -3 -59q-0.5 -27.5 -0.5 -45.5q0 -17 0.5 -45q0.5 -28 3 -59.5q2.5 -31.5 8.5 -63.5q6 -32 17.5 -57.5q11.5 -25.5 29 -41.5q17.5 -16 43.5 -16q28 0 45.5 16q17.5 16 27.5 40q10 24 14.5 51q4.5 27 6.5 48q4 38 5 76q1 38 1 76zt0 0zM202 714l-35 26l96 120l54 -43z" />
<glyph unicode="&#212;" horiz-adv-x="404" d="M366 336q0 -28 -1 -64.5q-1 -36.5 -6 -75q-5 -38.5 -15 -75q-10 -36.5 -28 -65.5q-18 -29 -45.5 -47q-27.5 -18 -67.5 -18q-39 0 -66.5 17.5q-27.5 17.5 -45.5 46.5q-18 29 -29 65.5q-11 36.5 -16 74.5q-5 38 -6.5 74q-1.5 36 -1.5 64q0 27 1.5 63.5q1.5 36.5 7 74.5q5.5 38 16 75q10.5 37 28.5 65.5q18 28.5 45 46.5q27 18 66 18q39 0 66.5 -17.5q27.5 -17.5 46 -46q18.5 -28.5 28.5 -64.5q10 -36 15.5 -74q5.5 -38 6.5 -74q1 -36 1 -64zt0 0zM303 358q0 17 -0.5 42.5q-0.5 25.5 -3.5 54.5q-3 29 -9 57.5q-6 28.5 -17 51.5q-11 23 -28 37.5q-17 14.5 -42 14.5q-26 0 -43.5 -16q-17.5 -16 -29 -41.5q-11.5 -25.5 -17.5 -57q-6 -31.5 -8.5 -63q-2.5 -31.5 -3 -59q-0.5 -27.5 -0.5 -45.5q0 -17 0.5 -45q0.5 -28 3 -59.5q2.5 -31.5 8.5 -63.5q6 -32 17.5 -57.5q11.5 -25.5 29 -41.5q17.5 -16 43.5 -16q28 0 45.5 16q17.5 16 27.5 40q10 24 14.5 51q4.5 27 6.5 48q4 38 5 76q1 38 1 76zt0 0zM275 714l-74 69l-74 -69l-38 38l112 107l114 -107z" />
<glyph unicode="&#213;" horiz-adv-x="404" d="M366 336q0 -28 -1 -64.5q-1 -36.5 -6 -75q-5 -38.5 -15 -75q-10 -36.5 -28 -65.5q-18 -29 -45.5 -47q-27.5 -18 -67.5 -18q-39 0 -66.5 17.5q-27.5 17.5 -45.5 46.5q-18 29 -29 65.5q-11 36.5 -16 74.5q-5 38 -6.5 74q-1.5 36 -1.5 64q0 27 1.5 63.5q1.5 36.5 7 74.5q5.5 38 16 75q10.5 37 28.5 65.5q18 28.5 45 46.5q27 18 66 18q39 0 66.5 -17.5q27.5 -17.5 46 -46q18.5 -28.5 28.5 -64.5q10 -36 15.5 -74q5.5 -38 6.5 -74q1 -36 1 -64zt0 0zM303 358q0 17 -0.5 42.5q-0.5 25.5 -3.5 54.5q-3 29 -9 57.5q-6 28.5 -17 51.5q-11 23 -28 37.5q-17 14.5 -42 14.5q-26 0 -43.5 -16q-17.5 -16 -29 -41.5q-11.5 -25.5 -17.5 -57q-6 -31.5 -8.5 -63q-2.5 -31.5 -3 -59q-0.5 -27.5 -0.5 -45.5q0 -17 0.5 -45q0.5 -28 3 -59.5q2.5 -31.5 8.5 -63.5q6 -32 17.5 -57.5q11.5 -25.5 29 -41.5q17.5 -16 43.5 -16q28 0 45.5 16q17.5 16 27.5 40q10 24 14.5 51q4.5 27 6.5 48q4 38 5 76q1 38 1 76zt0 0zM317 802q-1 -15 -5.5 -29.5q-4.5 -14.5 -12.5 -26q-8 -11.5 -20.5 -19q-12.5 -7.5 -29.5 -7.5q-13 0 -25.5 5.5q-12.5 5.5 -24 11.5q-11.5 6 -21.5 11.5q-10 5.5 -19 5.5q-11 0 -13.5 -8.5q-2.5 -8.5 -2.5 -16.5l-56 0q3 30 20 53.5q17 23.5 50 23.5q12 0 23.5 -5q11.5 -5 23 -11q11.5 -6 21.5 -11q10 -5 18 -5q12 0 14.5 9.5q2.5 9.5 2.5 18.5z" />
<glyph unicode="&#214;" horiz-adv-x="404" d="M366 336q0 -28 -1 -64.5q-1 -36.5 -6 -75q-5 -38.5 -15 -75q-10 -36.5 -28 -65.5q-18 -29 -45.5 -47q-27.5 -18 -67.5 -18q-39 0 -66.5 17.5q-27.5 17.5 -45.5 46.5q-18 29 -29 65.5q-11 36.5 -16 74.5q-5 38 -6.5 74q-1.5 36 -1.5 64q0 27 1.5 63.5q1.5 36.5 7 74.5q5.5 38 16 75q10.5 37 28.5 65.5q18 28.5 45 46.5q27 18 66 18q39 0 66.5 -17.5q27.5 -17.5 46 -46q18.5 -28.5 28.5 -64.5q10 -36 15.5 -74q5.5 -38 6.5 -74q1 -36 1 -64zt0 0zM303 358q0 17 -0.5 42.5q-0.5 25.5 -3.5 54.5q-3 29 -9 57.5q-6 28.5 -17 51.5q-11 23 -28 37.5q-17 14.5 -42 14.5q-26 0 -43.5 -16q-17.5 -16 -29 -41.5q-11.5 -25.5 -17.5 -57q-6 -31.5 -8.5 -63q-2.5 -31.5 -3 -59q-0.5 -27.5 -0.5 -45.5q0 -17 0.5 -45q0.5 -28 3 -59.5q2.5 -31.5 8.5 -63.5q6 -32 17.5 -57.5q11.5 -25.5 29 -41.5q17.5 -16 43.5 -16q28 0 45.5 16q17.5 16 27.5 40q10 24 14.5 51q4.5 27 6.5 48q4 38 5 76q1 38 1 76zt0 0zM309 764q0 -18 -12.5 -31q-12.5 -13 -30.5 -13q-18 0 -30.5 13q-12.5 13 -12.5 31q0 18 12.5 30.5q12.5 12.5 30.5 12.5q18 0 30.5 -12.5q12.5 -12.5 12.5 -30.5zt0 0zM181 764q0 -18 -12.5 -31q-12.5 -13 -30.5 -13q-18 0 -30.5 13q-12.5 13 -12.5 31q0 18 12.5 30.5q12.5 12.5 30.5 12.5q18 0 30.5 -12.5t12.5 -30.5z" />
<glyph unicode="&#215;" horiz-adv-x="500" d="M287 331l135 -134l-37 -38l-135 135l-135 -135l-37 38l135 134l-135 135l37 38l135 -135l135 135l37 -38z" />
<glyph unicode="&#216;" horiz-adv-x="428" d="M348 567q10 -26 16 -55.5q6 -29.5 9 -60q3 -30.5 4 -61q1 -30.5 1 -58.5q0 -28 -1 -64q-1 -36 -6 -74q-5 -38 -15.5 -74.5q-10.5 -36.5 -28.5 -65q-18 -28.5 -45.5 -46q-27.5 -17.5 -66.5 -17.5q-70 0 -109 60l-29 -59l-39 19l43 89q-20 54 -25.5 116.5q-5.5 62.5 -5.5 119.5q0 27 1.5 63q1.5 36 7 73.5q5.5 37.5 16 74q10.5 36.5 28.5 65.5q18 29 45 46.5q27 17.5 65 17.5q35 0 63.5 -15q28.5 -15 46.5 -45l28 59l39 -19zM290 553q-9 26 -27 44.5q-18 18.5 -48 18.5q-25 0 -42.5 -15q-17.5 -15 -29 -39.5q-11.5 -24.5 -17.5 -55q-6 -30.5 -9 -60.5q-3 -30 -3.5 -57q-0.5 -27 -0.5 -44q0 -42 2 -82.5q2 -40.5 8 -82.5zM140 114q10 -26 27 -44.5q17 -18.5 47 -18.5q30 0 48 18q18 18 28.5 44q10.5 26 14.5 55q4 29 6 51q2 29 3 59q1 30 1 60q0 74 -9 148z" />
<glyph unicode="&#217;" horiz-adv-x="390" d="M335 176q0 -23 -1.5 -46q-1.5 -23 -7.5 -46q-13 -47 -48 -70q-35 -23 -83 -23q-48 0 -82.5 23q-34.5 23 -48.5 70q-7 23 -8 46.5q-1 23.5 -1 46.5v490h62v-499q0 -21 2 -42q2 -21 10 -37.5q8 -16.5 23.5 -27q15.5 -10.5 42.5 -10.5q33 0 49 15.5q16 15.5 22.5 38.5q6.5 23 6.5 50q0 27 0 50v462h62zM195 714l-115 103l54 43l96 -120z" />
<glyph unicode="&#218;" horiz-adv-x="390" d="M335 176q0 -23 -1.5 -46q-1.5 -23 -7.5 -46q-13 -47 -48 -70q-35 -23 -83 -23q-48 0 -82.5 23q-34.5 23 -48.5 70q-7 23 -8 46.5q-1 23.5 -1 46.5v490h62v-499q0 -21 2 -42q2 -21 10 -37.5q8 -16.5 23.5 -27q15.5 -10.5 42.5 -10.5q33 0 49 15.5q16 15.5 22.5 38.5q6.5 23 6.5 50q0 27 0 50v462h62zM195 714l-35 26l96 120l54 -43z" />
<glyph unicode="&#219;" horiz-adv-x="390" d="M335 176q0 -23 -1.5 -46q-1.5 -23 -7.5 -46q-13 -47 -48 -70q-35 -23 -83 -23q-48 0 -82.5 23q-34.5 23 -48.5 70q-7 23 -8 46.5q-1 23.5 -1 46.5v490h62v-499q0 -21 2 -42q2 -21 10 -37.5q8 -16.5 23.5 -27q15.5 -10.5 42.5 -10.5q33 0 49 15.5q16 15.5 22.5 38.5q6.5 23 6.5 50q0 27 0 50v462h62zM268 714l-74 69l-74 -69l-38 38l112 107l114 -107z" />
<glyph unicode="&#220;" horiz-adv-x="390" d="M335 176q0 -23 -1.5 -46q-1.5 -23 -7.5 -46q-13 -47 -48 -70q-35 -23 -83 -23q-48 0 -82.5 23q-34.5 23 -48.5 70q-7 23 -8 46.5q-1 23.5 -1 46.5v490h62v-499q0 -21 2 -42q2 -21 10 -37.5q8 -16.5 23.5 -27q15.5 -10.5 42.5 -10.5q33 0 49 15.5q16 15.5 22.5 38.5q6.5 23 6.5 50q0 27 0 50v462h62zM302 764q0 -18 -12.5 -31q-12.5 -13 -30.5 -13q-18 0 -30.5 13q-12.5 13 -12.5 31q0 18 12.5 30.5q12.5 12.5 30.5 12.5q18 0 30.5 -12.5q12.5 -12.5 12.5 -30.5zt0 0zM174 764q0 -18 -12.5 -31q-12.5 -13 -30.5 -13q-18 0 -30.5 13q-12.5 13 -12.5 31q0 18 12.5 30.5q12.5 12.5 30.5 12.5q18 0 30.5 -12.5t12.5 -30.5z" />
<glyph unicode="&#221;" horiz-adv-x="316" d="M193 289v-289h-62v289l-130 378h67l62 -191q6 -18 15.5 -53.5q9.5 -35.5 16.5 -69.5q3 20 9 47q6 27 20 75l57 192h67zM150 714l-35 26l96 120l54 -43z" />
<glyph unicode="&#222;" horiz-adv-x="329" d="M117 550q51 0 86.5 -8q35.5 -8 58 -28.5q22.5 -20.5 32.5 -55q10 -34.5 10 -87.5q0 -45 -8 -76.5q-8 -31.5 -27 -52q-19 -20.5 -49.5 -30q-30.5 -9.5 -76.5 -9.5h-26v-203h-62v667h62zM158 260q27 0 43.5 8.5q16.5 8.5 25.5 23.5q9 15 11.5 35q2.5 20 2.5 44q0 27 -3 49.5q-3 22.5 -12.5 38.5q-9.5 16 -28 25q-18.5 9 -49.5 9h-31l0 -233z" />
<glyph unicode="&#223;" horiz-adv-x="336" d="M55 564q0 31 3.5 62.5q3.5 31.5 15.5 56.5q12 25 35.5 41q23.5 16 63.5 16q35 0 58.5 -13q23.5 -13 37.5 -36.5q14 -23.5 19.5 -55q5.5 -31.5 5.5 -67.5q0 -25 -2.5 -48.5q-2.5 -23.5 -9.5 -43q-7 -19.5 -19.5 -34.5q-12.5 -15 -32.5 -24q16 -6 27 -16q17 -14 26 -39q9 -25 13.5 -54q4.5 -29 5 -57.5q0.5 -28.5 0.5 -48.5q0 -27 -3 -62.5q-3 -35.5 -16 -66.5q-13 -31 -38 -52.5q-25 -21.5 -69 -21.5h-21v56h17q21 0 34 9.5q13 9.5 20 24q7 14.5 10 32q3 17.5 5 34.5q2 24 2.5 47q0.5 23 0.5 37q0 18 -1.5 44q-1.5 26 -8 49q-6.5 23 -21 39.5q-14.5 16.5 -40.5 16.5h-18v58h17q22 0 34.5 9q12.5 9 19 24q6.5 15 8.5 35q2 20 2 43q0 22 -2 45q-2 23 -8.5 42q-6.5 19 -19 31q-12.5 12 -34.5 12q-22 0 -34 -12.5q-12 -12.5 -17.5 -30.5q-5.5 -18 -6.5 -38q-1 -20 -1 -36v-571h-58v389h-51v58l51 0z" />
<glyph unicode="&#224;" horiz-adv-x="327" d="M220 0v36q-15 -20 -32.5 -31.5q-17.5 -11.5 -43.5 -11.5q-38 0 -59.5 23.5q-21.5 23.5 -31.5 58q-10 34.5 -12 72.5q-2 38 -2 68q0 34 2 75.5q2 41.5 12.5 78q10.5 36.5 33 61q22.5 24.5 62.5 24.5q24 0 40 -9q16 -9 31 -28l0 30h57v-447zM226 226q0 33 -1.5 66q-1.5 33 -8 59q-6.5 26 -19 42q-12.5 16 -34.5 16q-24 0 -37.5 -18.5q-13.5 -18.5 -20 -44q-6.5 -25.5 -7.5 -52.5q-1 -27 -1 -44q0 -28 0.5 -54.5q0.5 -26.5 2.5 -53.5q1 -15 4 -32.5q3 -17.5 9 -33.5q6 -16 17.5 -26.5q11.5 -10.5 31.5 -10.5q22 0 36 15q10 10 16 33q6 23 8.5 49q2.5 26 3 50.5q0.5 24.5 0.5 39.5zt0 0zM180 507l-115 103l54 43l96 -120z" />
<glyph unicode="&#225;" horiz-adv-x="327" d="M220 0v36q-15 -20 -32.5 -31.5q-17.5 -11.5 -43.5 -11.5q-38 0 -59.5 23.5q-21.5 23.5 -31.5 58q-10 34.5 -12 72.5q-2 38 -2 68q0 34 2 75.5q2 41.5 12.5 78q10.5 36.5 33 61q22.5 24.5 62.5 24.5q24 0 40 -9q16 -9 31 -28l0 30h57v-447zM226 226q0 33 -1.5 66q-1.5 33 -8 59q-6.5 26 -19 42q-12.5 16 -34.5 16q-24 0 -37.5 -18.5q-13.5 -18.5 -20 -44q-6.5 -25.5 -7.5 -52.5q-1 -27 -1 -44q0 -28 0.5 -54.5q0.5 -26.5 2.5 -53.5q1 -15 4 -32.5q3 -17.5 9 -33.5q6 -16 17.5 -26.5q11.5 -10.5 31.5 -10.5q22 0 36 15q10 10 16 33q6 23 8.5 49q2.5 26 3 50.5q0.5 24.5 0.5 39.5zt0 0zM150 507l-35 26l96 120l54 -43z" />
<glyph unicode="&#226;" horiz-adv-x="327" d="M220 0v36q-15 -20 -32.5 -31.5q-17.5 -11.5 -43.5 -11.5q-38 0 -59.5 23.5q-21.5 23.5 -31.5 58q-10 34.5 -12 72.5q-2 38 -2 68q0 34 2 75.5q2 41.5 12.5 78q10.5 36.5 33 61q22.5 24.5 62.5 24.5q24 0 40 -9q16 -9 31 -28l0 30h57v-447zM226 226q0 33 -1.5 66q-1.5 33 -8 59q-6.5 26 -19 42q-12.5 16 -34.5 16q-24 0 -37.5 -18.5q-13.5 -18.5 -20 -44q-6.5 -25.5 -7.5 -52.5q-1 -27 -1 -44q0 -28 0.5 -54.5q0.5 -26.5 2.5 -53.5q1 -15 4 -32.5q3 -17.5 9 -33.5q6 -16 17.5 -26.5q11.5 -10.5 31.5 -10.5q22 0 36 15q10 10 16 33q6 23 8.5 49q2.5 26 3 50.5q0.5 24.5 0.5 39.5zt0 0zM233 507l-74 69l-74 -69l-38 38l112 107l114 -107z" />
<glyph unicode="&#227;" horiz-adv-x="327" d="M220 0v36q-15 -20 -32.5 -31.5q-17.5 -11.5 -43.5 -11.5q-38 0 -59.5 23.5q-21.5 23.5 -31.5 58q-10 34.5 -12 72.5q-2 38 -2 68q0 34 2 75.5q2 41.5 12.5 78q10.5 36.5 33 61q22.5 24.5 62.5 24.5q24 0 40 -9q16 -9 31 -28l0 30h57v-447zM226 226q0 33 -1.5 66q-1.5 33 -8 59q-6.5 26 -19 42q-12.5 16 -34.5 16q-24 0 -37.5 -18.5q-13.5 -18.5 -20 -44q-6.5 -25.5 -7.5 -52.5q-1 -27 -1 -44q0 -28 0.5 -54.5q0.5 -26.5 2.5 -53.5q1 -15 4 -32.5q3 -17.5 9 -33.5q6 -16 17.5 -26.5q11.5 -10.5 31.5 -10.5q22 0 36 15q10 10 16 33q6 23 8.5 49q2.5 26 3 50.5q0.5 24.5 0.5 39.5zt0 0zM275 595q-1 -15 -5.5 -29.5q-4.5 -14.5 -12.5 -26q-8 -11.5 -20.5 -19q-12.5 -7.5 -29.5 -7.5q-13 0 -25.5 5.5q-12.5 5.5 -24 11.5q-11.5 6 -21.5 11.5q-10 5.5 -19 5.5q-11 0 -13.5 -8.5q-2.5 -8.5 -2.5 -16.5l-56 0q3 30 20 53.5q17 23.5 50 23.5q12 0 23.5 -5q11.5 -5 23 -11q11.5 -6 21.5 -11q10 -5 18 -5q12 0 14.5 9.5q2.5 9.5 2.5 18.5z" />
<glyph unicode="&#228;" horiz-adv-x="327" d="M220 0v36q-15 -20 -32.5 -31.5q-17.5 -11.5 -43.5 -11.5q-38 0 -59.5 23.5q-21.5 23.5 -31.5 58q-10 34.5 -12 72.5q-2 38 -2 68q0 34 2 75.5q2 41.5 12.5 78q10.5 36.5 33 61q22.5 24.5 62.5 24.5q24 0 40 -9q16 -9 31 -28l0 30h57v-447zM226 226q0 33 -1.5 66q-1.5 33 -8 59q-6.5 26 -19 42q-12.5 16 -34.5 16q-24 0 -37.5 -18.5q-13.5 -18.5 -20 -44q-6.5 -25.5 -7.5 -52.5q-1 -27 -1 -44q0 -28 0.5 -54.5q0.5 -26.5 2.5 -53.5q1 -15 4 -32.5q3 -17.5 9 -33.5q6 -16 17.5 -26.5q11.5 -10.5 31.5 -10.5q22 0 36 15q10 10 16 33q6 23 8.5 49q2.5 26 3 50.5q0.5 24.5 0.5 39.5zt0 0zM267 557q0 -18 -12.5 -31q-12.5 -13 -30.5 -13q-18 0 -30.5 13q-12.5 13 -12.5 31q0 18 12.5 30.5q12.5 12.5 30.5 12.5q18 0 30.5 -12.5q12.5 -12.5 12.5 -30.5zt0 0zM139 557q0 -18 -12.5 -31q-12.5 -13 -30.5 -13q-18 0 -30.5 13q-12.5 13 -12.5 31q0 18 12.5 30.5q12.5 12.5 30.5 12.5q18 0 30.5 -12.5t12.5 -30.5z" />
<glyph unicode="&#229;" horiz-adv-x="327" d="M220 0v36q-15 -20 -32.5 -31.5q-17.5 -11.5 -43.5 -11.5q-38 0 -59.5 23.5q-21.5 23.5 -31.5 58q-10 34.5 -12 72.5q-2 38 -2 68q0 34 2 75.5q2 41.5 12.5 78q10.5 36.5 33 61q22.5 24.5 62.5 24.5q24 0 40 -9q16 -9 31 -28l0 30h57v-447zM226 226q0 33 -1.5 66q-1.5 33 -8 59q-6.5 26 -19 42q-12.5 16 -34.5 16q-24 0 -37.5 -18.5q-13.5 -18.5 -20 -44q-6.5 -25.5 -7.5 -52.5q-1 -27 -1 -44q0 -28 0.5 -54.5q0.5 -26.5 2.5 -53.5q1 -15 4 -32.5q3 -17.5 9 -33.5q6 -16 17.5 -26.5q11.5 -10.5 31.5 -10.5q22 0 36 15q10 10 16 33q6 23 8.5 49q2.5 26 3 50.5q0.5 24.5 0.5 39.5zt0 0zM235 587q0 -33 -23.5 -56.5q-23.5 -23.5 -56.5 -23.5q-33 0 -56.5 23.5q-23.5 23.5 -23.5 56.5q0 33 23.5 56.5q23.5 23.5 56.5 23.5q33 0 56.5 -23.5q23.5 -23.5 23.5 -56.5zt0 0zM195 587q0 17 -11.5 28.5q-11.5 11.5 -28.5 11.5q-17 0 -28.5 -11.5q-11.5 -11.5 -11.5 -28.5q0 -17 11.5 -28.5q11.5 -11.5 28.5 -11.5q17 0 28.5 11.5t11.5 28.5z" />
<glyph unicode="&#230;" horiz-adv-x="508" d="M277 214q0 -18 2.5 -47q2.5 -29 10.5 -56q8 -27 23.5 -46.5q15.5 -19.5 41.5 -19.5q19 0 31 11.5q12 11.5 18 28.5q6 17 8.5 36q2.5 19 2.5 34l53 0q-1 -26 -7.5 -54.5q-6.5 -28.5 -20 -52.5q-13.5 -24 -35.5 -39.5q-22 -15.5 -53 -15.5q-37 0 -60 22q-23 22 -37 52q-14 -33 -42.5 -53.5q-28.5 -20.5 -65.5 -20.5q-32 0 -53.5 14.5q-21.5 14.5 -35 37q-13.5 22.5 -19.5 50.5q-6 28 -6 55q0 27 6 53.5q6 26.5 19 47.5q13 21 34.5 34q21.5 13 52.5 13q23 0 44.5 -9.5q21.5 -9.5 35.5 -27.5l0 13q0 22 -3.5 45q-3.5 23 -13 41.5q-9.5 18.5 -26.5 30q-17 11.5 -44 11.5q-23 0 -42 -11q-19 -11 -36 -25l0 62q37 26 81 26q40 0 68.5 -19.5q28.5 -19.5 45.5 -55.5q12 29 37 52q25 23 59 23q42 0 66.5 -26q24.5 -26 37 -63.5q12.5 -37.5 16 -78.5q3.5 -41 3.5 -72zM418 261q0 16 -3 40.5q-3 24.5 -10.5 46.5q-7.5 22 -21.5 38q-14 16 -36 16q-21 0 -34.5 -16.5q-13.5 -16.5 -21 -39q-7.5 -22.5 -10 -46.5q-2.5 -24 -2.5 -39zM226 145q0 17 -3 36q-3 19 -11 34.5q-8 15.5 -22 26q-14 10.5 -35 10.5q-21 0 -34 -10q-13 -10 -20.5 -25q-7.5 -15 -10 -33q-2.5 -18 -2.5 -34q0 -16 2.5 -34.5q2.5 -18.5 10 -34q7.5 -15.5 20.5 -25.5q13 -10 34 -10q20 0 33.5 9.5q13.5 9.5 22 23.5q8.5 14 12 31.5t3.5 34.5z" />
<glyph unicode="&#231;" horiz-adv-x="246" d="M226 16q-14 -11 -30.5 -17q-16.5 -6 -33.5 -6q-39 0 -64.5 23.5q-25.5 23.5 -39.5 58q-14 34.5 -19.5 73q-5.5 38.5 -5.5 68.5q0 32 4.5 73q4.5 41 18.5 78q14 37 40 62q26 25 69 25q32 0 61 -17l0 -66q-11 12 -25 21.5q-14 9.5 -31 9.5q-27 0 -42.5 -21.5q-15.5 -21.5 -23.5 -50.5q-8 -29 -10 -59.5q-2 -30.5 -2 -49.5q0 -18 2.5 -47.5q2.5 -29.5 10.5 -58q8 -28.5 23 -49q15 -20.5 41 -20.5q19 0 33 13q14 13 24 27zM133 -185l-36 21l67 127l46 -25z" />
<glyph unicode="&#232;" horiz-adv-x="313" d="M276 152q-1 -27 -6.5 -55q-5.5 -28 -18 -51.5q-12.5 -23.5 -34 -38q-21.5 -14.5 -54.5 -14.5q-43 0 -69 23.5q-26 23.5 -39.5 58.5q-13.5 35 -17.5 75q-4 40 -4 72q0 30 4.5 70q4.5 40 18 76q13.5 36 38 61q24.5 25 65.5 25q39 0 63 -22.5q24 -22.5 37 -55q13 -32.5 17 -69.5q4 -37 4 -67q0 -7 -0.5 -14q-0.5 -7 -0.5 -14l-189 0v-10q0 -17 2 -43.5q2 -26.5 9.5 -51.5q7.5 -25 21.5 -43q14 -18 38 -18q19 0 30 11q11 11 17 27.5q6 16.5 8.5 35q2.5 18.5 2.5 32.5zM224 260q-1 15 -3 39q-2 24 -8.5 47q-6.5 23 -19 39.5q-12.5 16.5 -33.5 16.5q-22 0 -35 -16.5q-13 -16.5 -20.5 -39q-7.5 -22.5 -10 -47q-2.5 -24.5 -3.5 -39.5zM180 507l-115 103l54 43l96 -120z" />
<glyph unicode="&#233;" horiz-adv-x="313" d="M276 152q-1 -27 -6.5 -55q-5.5 -28 -18 -51.5q-12.5 -23.5 -34 -38q-21.5 -14.5 -54.5 -14.5q-43 0 -69 23.5q-26 23.5 -39.5 58.5q-13.5 35 -17.5 75q-4 40 -4 72q0 30 4.5 70q4.5 40 18 76q13.5 36 38 61q24.5 25 65.5 25q39 0 63 -22.5q24 -22.5 37 -55q13 -32.5 17 -69.5q4 -37 4 -67q0 -7 -0.5 -14q-0.5 -7 -0.5 -14l-189 0v-10q0 -17 2 -43.5q2 -26.5 9.5 -51.5q7.5 -25 21.5 -43q14 -18 38 -18q19 0 30 11q11 11 17 27.5q6 16.5 8.5 35q2.5 18.5 2.5 32.5zM224 260q-1 15 -3 39q-2 24 -8.5 47q-6.5 23 -19 39.5q-12.5 16.5 -33.5 16.5q-22 0 -35 -16.5q-13 -16.5 -20.5 -39q-7.5 -22.5 -10 -47q-2.5 -24.5 -3.5 -39.5zM150 507l-35 26l96 120l54 -43z" />
<glyph unicode="&#234;" horiz-adv-x="313" d="M276 152q-1 -27 -6.5 -55q-5.5 -28 -18 -51.5q-12.5 -23.5 -34 -38q-21.5 -14.5 -54.5 -14.5q-43 0 -69 23.5q-26 23.5 -39.5 58.5q-13.5 35 -17.5 75q-4 40 -4 72q0 30 4.5 70q4.5 40 18 76q13.5 36 38 61q24.5 25 65.5 25q39 0 63 -22.5q24 -22.5 37 -55q13 -32.5 17 -69.5q4 -37 4 -67q0 -7 -0.5 -14q-0.5 -7 -0.5 -14l-189 0v-10q0 -17 2 -43.5q2 -26.5 9.5 -51.5q7.5 -25 21.5 -43q14 -18 38 -18q19 0 30 11q11 11 17 27.5q6 16.5 8.5 35q2.5 18.5 2.5 32.5zM224 260q-1 15 -3 39q-2 24 -8.5 47q-6.5 23 -19 39.5q-12.5 16.5 -33.5 16.5q-22 0 -35 -16.5q-13 -16.5 -20.5 -39q-7.5 -22.5 -10 -47q-2.5 -24.5 -3.5 -39.5zM232 507l-74 69l-74 -69l-38 38l112 107l114 -107z" />
<glyph unicode="&#235;" horiz-adv-x="313" d="M276 152q-1 -27 -6.5 -55q-5.5 -28 -18 -51.5q-12.5 -23.5 -34 -38q-21.5 -14.5 -54.5 -14.5q-43 0 -69 23.5q-26 23.5 -39.5 58.5q-13.5 35 -17.5 75q-4 40 -4 72q0 30 4.5 70q4.5 40 18 76q13.5 36 38 61q24.5 25 65.5 25q39 0 63 -22.5q24 -22.5 37 -55q13 -32.5 17 -69.5q4 -37 4 -67q0 -7 -0.5 -14q-0.5 -7 -0.5 -14l-189 0v-10q0 -17 2 -43.5q2 -26.5 9.5 -51.5q7.5 -25 21.5 -43q14 -18 38 -18q19 0 30 11q11 11 17 27.5q6 16.5 8.5 35q2.5 18.5 2.5 32.5zM224 260q-1 15 -3 39q-2 24 -8.5 47q-6.5 23 -19 39.5q-12.5 16.5 -33.5 16.5q-22 0 -35 -16.5q-13 -16.5 -20.5 -39q-7.5 -22.5 -10 -47q-2.5 -24.5 -3.5 -39.5zM266 557q0 -18 -12.5 -31q-12.5 -13 -30.5 -13q-18 0 -30.5 13q-12.5 13 -12.5 31q0 18 12.5 30.5q12.5 12.5 30.5 12.5q18 0 30.5 -12.5q12.5 -12.5 12.5 -30.5zt0 0zM138 557q0 -18 -12.5 -31q-12.5 -13 -30.5 -13q-18 0 -30.5 13q-12.5 13 -12.5 31q0 18 12.5 30.5q12.5 12.5 30.5 12.5q18 0 30.5 -12.5t12.5 -30.5z" />
<glyph unicode="&#236;" horiz-adv-x="155" d="M49 0v447h57v-447zM79 507l-115 103l54 43l96 -120z" />
<glyph unicode="&#237;" horiz-adv-x="155" d="M49 0v447h57v-447zM79 507l-35 26l96 120l54 -43z" />
<glyph unicode="&#238;" horiz-adv-x="155" d="M49 0v447h57v-447zM152 507l-74 69l-74 -69l-38 38l112 107l114 -107z" />
<glyph unicode="&#239;" horiz-adv-x="155" d="M49 0v447h57v-447zM186 557q0 -18 -12.5 -31q-12.5 -13 -30.5 -13q-18 0 -30.5 13q-12.5 13 -12.5 31q0 18 12.5 30.5q12.5 12.5 30.5 12.5q18 0 30.5 -12.5q12.5 -12.5 12.5 -30.5zt0 0zM58 557q0 -18 -12.5 -31q-12.5 -13 -30.5 -13q-18 0 -30.5 13q-12.5 13 -12.5 31q0 18 12.5 30.5q12.5 12.5 30.5 12.5q18 0 30.5 -12.5t12.5 -30.5z" />
<glyph unicode="&#240;" horiz-adv-x="323" d="M210 653q22 -27 35 -53.5q13 -26.5 22 -59.5q7 -37 11.5 -79.5q4.5 -42.5 7 -85q2.5 -42.5 3 -82q0.5 -39.5 0.5 -69.5q0 -42 -5 -90q-5 -48 -27 -86q-15 -25 -39 -40q-24 -15 -53 -15q-44 0 -70 23.5q-26 23.5 -39.5 59q-13.5 35.5 -18 75.5q-4.5 40 -4.5 73q0 31 4 71q4 40 17.5 75q13.5 35 39 59.5q25.5 24.5 67.5 24.5q42 0 62 -34q-2 33 -5 61.5q-3 28.5 -8.5 53.5q-5.5 25 -15.5 47q-10 22 -26 43l-65 -44l-24 38l56 37q-36 30 -85 49l23 35q32 -11 54.5 -23.5q22.5 -12.5 49.5 -32.5l66 41l24 -37zM231 224q0 17 -1.5 47q-1.5 30 -8 59q-6.5 29 -21 50.5q-14.5 21.5 -39.5 21.5q-25 0 -39 -22q-14 -22 -21 -51q-7 -29 -8.5 -59q-1.5 -30 -1.5 -46q0 -17 1.5 -47.5q1.5 -30.5 8 -59.5q6.5 -29 21 -50.5q14.5 -21.5 41.5 -21.5q17 0 29 11.5q12 11.5 19 26.5q6 13 9.5 31.5q3.5 18.5 6 38q2.5 19.5 3.5 38.5t1 33z" />
<glyph unicode="&#241;" horiz-adv-x="330" d="M224 0v321q0 14 -0.5 29.5q-0.5 15.5 -5 28q-4.5 12.5 -15 21q-10.5 8.5 -29.5 8.5q-16 0 -30.5 -7.5q-14.5 -7.5 -22.5 -21.5q-11 -17 -13 -37.5q-2 -20.5 -2 -40.5v-301h-56v447h56v-36q17 19 39 31q22 12 48 12q28 0 45 -10.5q17 -10.5 26.5 -28q9.5 -17.5 12.5 -39.5q3 -22 3 -45v-331zM290 595q-1 -15 -5.5 -29.5q-4.5 -14.5 -12.5 -26q-8 -11.5 -20.5 -19q-12.5 -7.5 -29.5 -7.5q-13 0 -25.5 5.5q-12.5 5.5 -24 11.5q-11.5 6 -21.5 11.5q-10 5.5 -19 5.5q-11 0 -13.5 -8.5q-2.5 -8.5 -2.5 -16.5l-56 0q3 30 20 53.5q17 23.5 50 23.5q12 0 23.5 -5q11.5 -5 23 -11q11.5 -6 21.5 -11q10 -5 18 -5q12 0 14.5 9.5q2.5 9.5 2.5 18.5z" />
<glyph unicode="&#242;" horiz-adv-x="323" d="M289 221q0 -32 -3.5 -71.5q-3.5 -39.5 -16 -74.5q-12.5 -35 -37.5 -58.5q-25 -23.5 -68 -23.5q-43 0 -69 24q-26 24 -39.5 59q-13.5 35 -18 75q-4.5 40 -4.5 73q0 33 4.5 73q4.5 40 18 75q13.5 35 39.5 58.5q26 23.5 69 23.5q43 0 68 -24.5q25 -24.5 38 -60q13 -35.5 16 -76q3 -40.5 3 -72.5zt0 0zM231 224q0 17 -1.5 47q-1.5 30 -8 59q-6.5 29 -20 50.5q-13.5 21.5 -38.5 21.5q-26 0 -40.5 -22q-14.5 -22 -21 -52q-6.5 -30 -8 -60.5q-1.5 -30.5 -1.5 -48.5q0 -18 1.5 -47q1.5 -29 8.5 -57q7 -28 21 -48.5q14 -20.5 40 -20.5q25 0 38.5 21.5q13.5 21.5 20 50.5q6.5 29 8 59q1.5 30 1.5 47zt0 0zM180 507l-115 103l54 43l96 -120z" />
<glyph unicode="&#243;" horiz-adv-x="323" d="M289 221q0 -32 -3.5 -71.5q-3.5 -39.5 -16 -74.5q-12.5 -35 -37.5 -58.5q-25 -23.5 -68 -23.5q-43 0 -69 24q-26 24 -39.5 59q-13.5 35 -18 75q-4.5 40 -4.5 73q0 33 4.5 73q4.5 40 18 75q13.5 35 39.5 58.5q26 23.5 69 23.5q43 0 68 -24.5q25 -24.5 38 -60q13 -35.5 16 -76q3 -40.5 3 -72.5zt0 0zM231 224q0 17 -1.5 47q-1.5 30 -8 59q-6.5 29 -20 50.5q-13.5 21.5 -38.5 21.5q-26 0 -40.5 -22q-14.5 -22 -21 -52q-6.5 -30 -8 -60.5q-1.5 -30.5 -1.5 -48.5q0 -18 1.5 -47q1.5 -29 8.5 -57q7 -28 21 -48.5q14 -20.5 40 -20.5q25 0 38.5 21.5q13.5 21.5 20 50.5q6.5 29 8 59q1.5 30 1.5 47zt0 0zM154 507l-35 26l96 120l54 -43z" />
<glyph unicode="&#244;" horiz-adv-x="323" d="M289 221q0 -32 -3.5 -71.5q-3.5 -39.5 -16 -74.5q-12.5 -35 -37.5 -58.5q-25 -23.5 -68 -23.5q-43 0 -69 24q-26 24 -39.5 59q-13.5 35 -18 75q-4.5 40 -4.5 73q0 33 4.5 73q4.5 40 18 75q13.5 35 39.5 58.5q26 23.5 69 23.5q43 0 68 -24.5q25 -24.5 38 -60q13 -35.5 16 -76q3 -40.5 3 -72.5zt0 0zM231 224q0 17 -1.5 47q-1.5 30 -8 59q-6.5 29 -20 50.5q-13.5 21.5 -38.5 21.5q-26 0 -40.5 -22q-14.5 -22 -21 -52q-6.5 -30 -8 -60.5q-1.5 -30.5 -1.5 -48.5q0 -18 1.5 -47q1.5 -29 8.5 -57q7 -28 21 -48.5q14 -20.5 40 -20.5q25 0 38.5 21.5q13.5 21.5 20 50.5q6.5 29 8 59q1.5 30 1.5 47zt0 0zM237 507l-74 69l-74 -69l-38 38l112 107l114 -107z" />
<glyph unicode="&#245;" horiz-adv-x="323" d="M289 221q0 -32 -3.5 -71.5q-3.5 -39.5 -16 -74.5q-12.5 -35 -37.5 -58.5q-25 -23.5 -68 -23.5q-43 0 -69 24q-26 24 -39.5 59q-13.5 35 -18 75q-4.5 40 -4.5 73q0 33 4.5 73q4.5 40 18 75q13.5 35 39.5 58.5q26 23.5 69 23.5q43 0 68 -24.5q25 -24.5 38 -60q13 -35.5 16 -76q3 -40.5 3 -72.5zt0 0zM231 224q0 17 -1.5 47q-1.5 30 -8 59q-6.5 29 -20 50.5q-13.5 21.5 -38.5 21.5q-26 0 -40.5 -22q-14.5 -22 -21 -52q-6.5 -30 -8 -60.5q-1.5 -30.5 -1.5 -48.5q0 -18 1.5 -47q1.5 -29 8.5 -57q7 -28 21 -48.5q14 -20.5 40 -20.5q25 0 38.5 21.5q13.5 21.5 20 50.5q6.5 29 8 59q1.5 30 1.5 47zt0 0zM279 595q-1 -15 -5.5 -29.5q-4.5 -14.5 -12.5 -26q-8 -11.5 -20.5 -19q-12.5 -7.5 -29.5 -7.5q-13 0 -25.5 5.5q-12.5 5.5 -24 11.5q-11.5 6 -21.5 11.5q-10 5.5 -19 5.5q-11 0 -13.5 -8.5q-2.5 -8.5 -2.5 -16.5l-56 0q3 30 20 53.5q17 23.5 50 23.5q12 0 23.5 -5q11.5 -5 23 -11q11.5 -6 21.5 -11q10 -5 18 -5q12 0 14.5 9.5q2.5 9.5 2.5 18.5z" />
<glyph unicode="&#246;" horiz-adv-x="323" d="M289 221q0 -32 -3.5 -71.5q-3.5 -39.5 -16 -74.5q-12.5 -35 -37.5 -58.5q-25 -23.5 -68 -23.5q-43 0 -69 24q-26 24 -39.5 59q-13.5 35 -18 75q-4.5 40 -4.5 73q0 33 4.5 73q4.5 40 18 75q13.5 35 39.5 58.5q26 23.5 69 23.5q43 0 68 -24.5q25 -24.5 38 -60q13 -35.5 16 -76q3 -40.5 3 -72.5zt0 0zM231 224q0 17 -1.5 47q-1.5 30 -8 59q-6.5 29 -20 50.5q-13.5 21.5 -38.5 21.5q-26 0 -40.5 -22q-14.5 -22 -21 -52q-6.5 -30 -8 -60.5q-1.5 -30.5 -1.5 -48.5q0 -18 1.5 -47q1.5 -29 8.5 -57q7 -28 21 -48.5q14 -20.5 40 -20.5q25 0 38.5 21.5q13.5 21.5 20 50.5q6.5 29 8 59q1.5 30 1.5 47zt0 0zM271 557q0 -18 -12.5 -31q-12.5 -13 -30.5 -13q-18 0 -30.5 13q-12.5 13 -12.5 31q0 18 12.5 30.5q12.5 12.5 30.5 12.5q18 0 30.5 -12.5q12.5 -12.5 12.5 -30.5zt0 0zM143 557q0 -18 -12.5 -31q-12.5 -13 -30.5 -13q-18 0 -30.5 13q-12.5 13 -12.5 31q0 18 12.5 30.5q12.5 12.5 30.5 12.5q18 0 30.5 -12.5t12.5 -30.5z" />
<glyph unicode="&#247;" horiz-adv-x="500" d="M292 517q0 -17 -12.5 -30q-12.5 -13 -29.5 -13q-17 0 -29.5 13q-12.5 13 -12.5 30q0 17 12.5 29.5q12.5 12.5 29.5 12.5q17 0 29.5 -12.5q12.5 -12.5 12.5 -29.5zt0 0zM33 305v53h434v-53zM292 146q0 -17 -12.5 -30q-12.5 -13 -29.5 -13q-17 0 -29.5 13q-12.5 13 -12.5 30q0 17 12.5 29.5q12.5 12.5 29.5 12.5q17 0 29.5 -12.5t12.5 -29.5z" />
<glyph unicode="&#248;" horiz-adv-x="351" d="M283 375q14 -37 17.5 -76q3.5 -39 3.5 -78q0 -32 -3.5 -71.5q-3.5 -39.5 -16.5 -74.5q-13 -35 -37.5 -58.5q-24.5 -23.5 -67.5 -23.5q-57 0 -90 44l-25 -40l-31 18l36 62q-12 35 -16.5 72q-4.5 37 -4.5 74q0 32 4.5 72q4.5 40 18 75.5q13.5 35.5 39 59.5q25.5 24 68.5 24q52 0 85 -42h24l31 23zM227 359q-7 17 -18.5 30q-11.5 13 -31.5 13q-26 0 -40 -21.5q-14 -21.5 -21 -51q-7 -29.5 -8.5 -59.5q-1.5 -30 -1.5 -48q0 -20 1.5 -40.5q1.5 -20.5 3.5 -40.5zM124 90q7 -17 20 -30.5q13 -13.5 33 -13.5q24 0 38 21q14 21 21 49.5q7 28.5 8.5 57.5q1.5 29 1.5 46q0 21 -2 42q-2 21 -4 42z" />
<glyph unicode="&#249;" horiz-adv-x="332" d="M282 109q0 -54 -31 -85q-31 -31 -85 -31q-54 0 -85 31q-31 31 -31 85v338h56v-291q0 -18 0.5 -37.5q0.5 -19.5 6 -35.5q5.5 -16 18.5 -26.5q13 -10.5 37 -10.5q23 0 35 11q12 11 17 27.5q5 16.5 5.5 35.5q0.5 19 0.5 36v291h56zM180 507l-115 103l54 43l96 -120z" />
<glyph unicode="&#250;" horiz-adv-x="332" d="M282 109q0 -54 -31 -85q-31 -31 -85 -31q-54 0 -85 31q-31 31 -31 85v338h56v-291q0 -18 0.5 -37.5q0.5 -19.5 6 -35.5q5.5 -16 18.5 -26.5q13 -10.5 37 -10.5q23 0 35 11q12 11 17 27.5q5 16.5 5.5 35.5q0.5 19 0.5 36v291h56zM160 507l-35 26l96 120l54 -43z" />
<glyph unicode="&#251;" horiz-adv-x="332" d="M282 109q0 -54 -31 -85q-31 -31 -85 -31q-54 0 -85 31q-31 31 -31 85v338h56v-291q0 -18 0.5 -37.5q0.5 -19.5 6 -35.5q5.5 -16 18.5 -26.5q13 -10.5 37 -10.5q23 0 35 11q12 11 17 27.5q5 16.5 5.5 35.5q0.5 19 0.5 36v291h56zM241 507l-74 69l-74 -69l-38 38l112 107l114 -107z" />
<glyph unicode="&#252;" horiz-adv-x="332" d="M282 109q0 -54 -31 -85q-31 -31 -85 -31q-54 0 -85 31q-31 31 -31 85v338h56v-291q0 -18 0.5 -37.5q0.5 -19.5 6 -35.5q5.5 -16 18.5 -26.5q13 -10.5 37 -10.5q23 0 35 11q12 11 17 27.5q5 16.5 5.5 35.5q0.5 19 0.5 36v291h56zM275 557q0 -18 -12.5 -31q-12.5 -13 -30.5 -13q-18 0 -30.5 13q-12.5 13 -12.5 31q0 18 12.5 30.5q12.5 12.5 30.5 12.5q18 0 30.5 -12.5q12.5 -12.5 12.5 -30.5zt0 0zM147 557q0 -18 -12.5 -31q-12.5 -13 -30.5 -13q-18 0 -30.5 13q-12.5 13 -12.5 31q0 18 12.5 30.5q12.5 12.5 30.5 12.5q18 0 30.5 -12.5t12.5 -30.5z" />
<glyph unicode="&#253;" horiz-adv-x="289" d="M123 -180h-60l50 192l-106 435h57l56 -248q13 -54 21 -112q3 21 8 41.5q5 20.5 10 42.5l65 276h59zM142 507l-35 26l96 120l54 -43z" />
<glyph unicode="&#254;" horiz-adv-x="324" d="M106 417q14 19 30.5 28q16.5 9 40.5 9q41 0 63.5 -23.5q22.5 -23.5 33 -57.5q10.5 -34 12.5 -72.5q2 -38.5 2 -68.5q0 -36 -2 -78q-2 -42 -12 -77.5q-10 -35.5 -31.5 -59.5q-21.5 -24 -59.5 -24q-26 0 -43.5 11.5q-17.5 11.5 -33.5 31.5l0 -216h-56v909h56zM230 247q0 17 -1 44.5q-1 27.5 -7.5 53.5q-6.5 26 -20 45q-13.5 19 -37.5 19q-21 0 -33.5 -15.5q-12.5 -15.5 -19 -41q-6.5 -25.5 -8.5 -58.5q-2 -33 -2 -68q0 -15 0.5 -39.5q0.5 -24.5 3 -50.5q2.5 -26 8 -49q5.5 -23 16.5 -33q14 -15 36 -15q19 0 31 10.5q12 10.5 18 26.5q6 16 8.5 33.5q2.5 17.5 4.5 32.5q2 26 2.5 52.5t0.5 52.5z" />
<glyph unicode="&#255;" horiz-adv-x="289" d="M123 -180h-60l50 192l-106 435h57l56 -248q13 -54 21 -112q3 21 8 41.5q5 20.5 10 42.5l65 276h59zM261 557q0 -18 -12.5 -31q-12.5 -13 -30.5 -13q-18 0 -30.5 13q-12.5 13 -12.5 31q0 18 12.5 30.5q12.5 12.5 30.5 12.5q18 0 30.5 -12.5q12.5 -12.5 12.5 -30.5zt0 0zM133 557q0 -18 -12.5 -31q-12.5 -13 -30.5 -13q-18 0 -30.5 13q-12.5 13 -12.5 31q0 18 12.5 30.5q12.5 12.5 30.5 12.5q18 0 30.5 -12.5t12.5 -30.5z" />
<glyph unicode="&#256;" horiz-adv-x="325" d="M258 0l-25 137h-141l-25 -137h-66l132 667h58l133 -667zM179 426q-8 39 -12.5 78q-4.5 39 -6.5 79q-7 -100 -24 -197q-17 -97 -34 -195l121 0zM51 727v55h224l0 -55z" />
<glyph unicode="&#257;" horiz-adv-x="327" d="M220 0v36q-15 -20 -32.5 -31.5q-17.5 -11.5 -43.5 -11.5q-38 0 -59.5 23.5q-21.5 23.5 -31.5 58q-10 34.5 -12 72.5q-2 38 -2 68q0 34 2 75.5q2 41.5 12.5 78q10.5 36.5 33 61q22.5 24.5 62.5 24.5q24 0 40 -9q16 -9 31 -28l0 30h57v-447zM226 226q0 33 -1.5 66q-1.5 33 -8 59q-6.5 26 -19 42q-12.5 16 -34.5 16q-24 0 -37.5 -18.5q-13.5 -18.5 -20 -44q-6.5 -25.5 -7.5 -52.5q-1 -27 -1 -44q0 -28 0.5 -54.5q0.5 -26.5 2.5 -53.5q1 -15 4 -32.5q3 -17.5 9 -33.5q6 -16 17.5 -26.5q11.5 -10.5 31.5 -10.5q22 0 36 15q10 10 16 33q6 23 8.5 49q2.5 26 3 50.5q0.5 24.5 0.5 39.5zt0 0zM54 520v55h224l0 -55z" />
<glyph unicode="&#258;" horiz-adv-x="325" d="M258 0l-25 137h-141l-25 -137h-66l132 667h58l133 -667zM179 426q-8 39 -12.5 78q-4.5 39 -6.5 79q-7 -100 -24 -197q-17 -97 -34 -195l121 0zM286 810q-3 -24 -14 -41.5q-11 -17.5 -28 -29q-17 -11.5 -38 -16.5q-21 -5 -43 -5q-22 0 -43 5q-21 5 -38 16.5q-17 11.5 -28 29q-11 17.5 -14 41.5l48 0q10 -23 31 -32q21 -9 44 -9q23 0 44 9q21 9 31 32z" />
<glyph unicode="&#259;" horiz-adv-x="327" d="M220 0v36q-15 -20 -32.5 -31.5q-17.5 -11.5 -43.5 -11.5q-38 0 -59.5 23.5q-21.5 23.5 -31.5 58q-10 34.5 -12 72.5q-2 38 -2 68q0 34 2 75.5q2 41.5 12.5 78q10.5 36.5 33 61q22.5 24.5 62.5 24.5q24 0 40 -9q16 -9 31 -28l0 30h57v-447zM226 226q0 33 -1.5 66q-1.5 33 -8 59q-6.5 26 -19 42q-12.5 16 -34.5 16q-24 0 -37.5 -18.5q-13.5 -18.5 -20 -44q-6.5 -25.5 -7.5 -52.5q-1 -27 -1 -44q0 -28 0.5 -54.5q0.5 -26.5 2.5 -53.5q1 -15 4 -32.5q3 -17.5 9 -33.5q6 -16 17.5 -26.5q11.5 -10.5 31.5 -10.5q22 0 36 15q10 10 16 33q6 23 8.5 49q2.5 26 3 50.5q0.5 24.5 0.5 39.5zt0 0zM280 599q-3 -24 -14 -41.5q-11 -17.5 -28 -29q-17 -11.5 -38 -16.5q-21 -5 -43 -5q-22 0 -43 5q-21 5 -38 16.5q-17 11.5 -28 29q-11 17.5 -14 41.5l48 0q10 -23 31 -32q21 -9 44 -9q23 0 44 9q21 9 31 32z" />
<glyph unicode="&#260;" horiz-adv-x="325" d="M191 667l133 -667h-20q-8 -8 -18 -19q-10 -11 -16 -20q-10 -14 -12 -23q-2 -9 -2 -13q0 -12 9 -21q3 -2 8.5 -4.5q5.5 -2.5 14.5 -2.5q6 0 14 1.5q8 1.5 16 6.5l0 -48q-20 -9 -40 -9q-12 0 -26.5 3q-14.5 3 -27.5 17q-9 10 -13 22q-4 12 -4 23q0 16 5.5 28q5.5 12 11.5 20q7 9 16.5 20q9.5 11 17.5 19l-25 137h-141l-25 -137h-66l132 667zM179 426q-5 27 -10 65q-5 38 -9 92q-3 -39 -11 -108q-8 -69 -25 -163l-22 -121l121 0z" />
<glyph unicode="&#261;" horiz-adv-x="327" d="M275 447v-447h-13q-1 -2 -12 -12q-11 -10 -20 -24q-2 -4 -7.5 -13.5q-5.5 -9.5 -5.5 -21.5q0 -9 3.5 -14.5q3.5 -5.5 6.5 -8.5q10 -8 23 -8q17 0 35 10l0 -47q-21 -11 -44 -11q-18 0 -30 4.5q-12 4.5 -19 9.5q-11 9 -17 21.5q-6 12.5 -6 26.5q0 14 5.5 26.5q5.5 12.5 10.5 20.5q6 10 15 21q9 11 17 20l0 36q-13 -22 -33 -32.5q-20 -10.5 -43 -10.5q-20 0 -38 8q-18 8 -32 28q-20 26 -27.5 73.5q-7.5 47.5 -7.5 119.5v6q0 21 0.5 48.5q0.5 27.5 4.5 55q4 27.5 13 52.5q9 25 25 42q26 28 68 28q23 0 41 -10q18 -10 29 -27l0 30zM223 238q0 51 -4 93.5q-4 42.5 -27 64.5q-14 13 -32 13q-19 0 -33 -14q-20 -21 -26.5 -58.5q-6.5 -37.5 -6.5 -86.5v-39q0 -72 8 -107q8 -35 22 -50q13 -15 35 -15q14 0 23 4.5q9 4.5 14 10.5q6 6 10.5 16q4.5 10 8.5 29.5q4 19.5 6 50q2 30.5 2 76.5z" />
<glyph unicode="&#262;" horiz-adv-x="320" d="M302 19q-20 -13 -42 -20.5q-22 -7.5 -45 -7.5q-36 0 -67.5 18q-31.5 18 -52.5 47q-19 26 -30.5 58.5q-11.5 32.5 -17.5 67q-6 34.5 -7.5 69q-1.5 34.5 -1.5 65.5q0 31 2 69.5q2 38.5 8 78.5q6 40 18 78q12 38 32.5 68q20.5 30 50.5 48q30 18 73 18q21 0 41.5 -5q20.5 -5 38.5 -16l0 -68q-17 11 -36 20q-19 9 -41 9q-30 0 -51 -15q-21 -15 -34.5 -39q-13.5 -24 -21.5 -54.5q-8 -30.5 -11.5 -61.5q-3.5 -31 -4.5 -60q-1 -29 -1 -50q0 -24 1.5 -58q1.5 -34 6.5 -68.5q5 -34.5 13.5 -66q8.5 -31.5 22.5 -51.5q28 -41 75 -41q23 0 43.5 9q20.5 9 38.5 21zM220 714l-35 26l96 120l54 -43z" />
<glyph unicode="&#263;" horiz-adv-x="246" d="M226 16q-14 -11 -30.5 -17q-16.5 -6 -33.5 -6q-39 0 -64.5 23.5q-25.5 23.5 -39.5 58q-14 34.5 -19.5 73q-5.5 38.5 -5.5 68.5q0 32 4.5 73q4.5 41 18.5 78q14 37 40 62q26 25 69 25q32 0 61 -17l0 -66q-11 12 -25 21.5q-14 9.5 -31 9.5q-27 0 -42.5 -21.5q-15.5 -21.5 -23.5 -50.5q-8 -29 -10 -59.5q-2 -30.5 -2 -49.5q0 -18 2.5 -47.5q2.5 -29.5 10.5 -58q8 -28.5 23 -49q15 -20.5 41 -20.5q19 0 33 13q14 13 24 27zM160 507l-35 26l96 120l54 -43z" />
<glyph unicode="&#264;" horiz-adv-x="320" d="M302 19q-20 -13 -42 -20.5q-22 -7.5 -45 -7.5q-36 0 -67.5 18q-31.5 18 -52.5 47q-19 26 -30.5 58.5q-11.5 32.5 -17.5 67q-6 34.5 -7.5 69q-1.5 34.5 -1.5 65.5q0 31 2 69.5q2 38.5 8 78.5q6 40 18 78q12 38 32.5 68q20.5 30 50.5 48q30 18 73 18q21 0 41.5 -5q20.5 -5 38.5 -16l0 -68q-17 11 -36 20q-19 9 -41 9q-30 0 -51 -15q-21 -15 -34.5 -39q-13.5 -24 -21.5 -54.5q-8 -30.5 -11.5 -61.5q-3.5 -31 -4.5 -60q-1 -29 -1 -50q0 -24 1.5 -58q1.5 -34 6.5 -68.5q5 -34.5 13.5 -66q8.5 -31.5 22.5 -51.5q28 -41 75 -41q23 0 43.5 9q20.5 9 38.5 21zM293 714l-74 69l-74 -69l-38 38l112 107l114 -107z" />
<glyph unicode="&#265;" horiz-adv-x="246" d="M226 16q-14 -11 -30.5 -17q-16.5 -6 -33.5 -6q-39 0 -64.5 23.5q-25.5 23.5 -39.5 58q-14 34.5 -19.5 73q-5.5 38.5 -5.5 68.5q0 32 4.5 73q4.5 41 18.5 78q14 37 40 62q26 25 69 25q32 0 61 -17l0 -66q-11 12 -25 21.5q-14 9.5 -31 9.5q-27 0 -42.5 -21.5q-15.5 -21.5 -23.5 -50.5q-8 -29 -10 -59.5q-2 -30.5 -2 -49.5q0 -18 2.5 -47.5q2.5 -29.5 10.5 -58q8 -28.5 23 -49q15 -20.5 41 -20.5q19 0 33 13q14 13 24 27zM233 507l-74 69l-74 -69l-38 38l112 107l114 -107z" />
<glyph unicode="&#266;" horiz-adv-x="320" d="M302 19q-20 -13 -42 -20.5q-22 -7.5 -45 -7.5q-36 0 -67.5 18q-31.5 18 -52.5 47q-19 26 -30.5 58.5q-11.5 32.5 -17.5 67q-6 34.5 -7.5 69q-1.5 34.5 -1.5 65.5q0 31 2 69.5q2 38.5 8 78.5q6 40 18 78q12 38 32.5 68q20.5 30 50.5 48q30 18 73 18q21 0 41.5 -5q20.5 -5 38.5 -16l0 -68q-17 11 -36 20q-19 9 -41 9q-30 0 -51 -15q-21 -15 -34.5 -39q-13.5 -24 -21.5 -54.5q-8 -30.5 -11.5 -61.5q-3.5 -31 -4.5 -60q-1 -29 -1 -50q0 -24 1.5 -58q1.5 -34 6.5 -68.5q5 -34.5 13.5 -66q8.5 -31.5 22.5 -51.5q28 -41 75 -41q23 0 43.5 9q20.5 9 38.5 21zM258 766q0 -19 -13.5 -32.5q-13.5 -13.5 -32.5 -13.5q-19 0 -32 13.5q-13 13.5 -13 32.5q0 19 13 32q13 13 32 13q19 0 32.5 -13t13.5 -32z" />
<glyph unicode="&#267;" horiz-adv-x="246" d="M226 16q-14 -11 -30.5 -17q-16.5 -6 -33.5 -6q-39 0 -64.5 23.5q-25.5 23.5 -39.5 58q-14 34.5 -19.5 73q-5.5 38.5 -5.5 68.5q0 32 4.5 73q4.5 41 18.5 78q14 37 40 62q26 25 69 25q32 0 61 -17l0 -66q-11 12 -25 21.5q-14 9.5 -31 9.5q-27 0 -42.5 -21.5q-15.5 -21.5 -23.5 -50.5q-8 -29 -10 -59.5q-2 -30.5 -2 -49.5q0 -18 2.5 -47.5q2.5 -29.5 10.5 -58q8 -28.5 23 -49q15 -20.5 41 -20.5q19 0 33 13q14 13 24 27zM203 559q0 -19 -13.5 -32.5q-13.5 -13.5 -32.5 -13.5q-19 0 -32 13.5q-13 13.5 -13 32.5q0 19 13 32q13 13 32 13q19 0 32.5 -13t13.5 -32z" />
<glyph unicode="&#268;" horiz-adv-x="320" d="M302 19q-20 -13 -42 -20.5q-22 -7.5 -45 -7.5q-36 0 -67.5 18q-31.5 18 -52.5 47q-19 26 -30.5 58.5q-11.5 32.5 -17.5 67q-6 34.5 -7.5 69q-1.5 34.5 -1.5 65.5q0 31 2 69.5q2 38.5 8 78.5q6 40 18 78q12 38 32.5 68q20.5 30 50.5 48q30 18 73 18q21 0 41.5 -5q20.5 -5 38.5 -16l0 -68q-17 11 -36 20q-19 9 -41 9q-30 0 -51 -15q-21 -15 -34.5 -39q-13.5 -24 -21.5 -54.5q-8 -30.5 -11.5 -61.5q-3.5 -31 -4.5 -60q-1 -29 -1 -50q0 -24 1.5 -58q1.5 -34 6.5 -68.5q5 -34.5 13.5 -66q8.5 -31.5 22.5 -51.5q28 -41 75 -41q23 0 43.5 9q20.5 9 38.5 21zM219 714l-112 107l38 38l74 -69l74 69l40 -38z" />
<glyph unicode="&#269;" horiz-adv-x="246" d="M226 16q-14 -11 -30.5 -17q-16.5 -6 -33.5 -6q-39 0 -64.5 23.5q-25.5 23.5 -39.5 58q-14 34.5 -19.5 73q-5.5 38.5 -5.5 68.5q0 32 4.5 73q4.5 41 18.5 78q14 37 40 62q26 25 69 25q32 0 61 -17l0 -66q-11 12 -25 21.5q-14 9.5 -31 9.5q-27 0 -42.5 -21.5q-15.5 -21.5 -23.5 -50.5q-8 -29 -10 -59.5q-2 -30.5 -2 -49.5q0 -18 2.5 -47.5q2.5 -29.5 10.5 -58q8 -28.5 23 -49q15 -20.5 41 -20.5q19 0 33 13q14 13 24 27zM159 507l-112 107l38 38l74 -69l74 69l40 -38z" />
<glyph unicode="&#270;" horiz-adv-x="371" d="M133 667q48 0 81 -10q33 -10 55 -31q22 -21 35 -54q13 -33 20 -79q6 -42 7.5 -84.5q1.5 -42.5 1.5 -85.5q0 -30 -1 -67q-1 -37 -6.5 -74q-5.5 -37 -16.5 -71q-11 -34 -31 -58q-28 -33 -63.5 -43q-35.5 -10 -77.5 -10h-82v667zM146 57q47 0 72 24.5q25 24.5 36.5 60.5q11.5 36 13 77q1.5 41 1.5 75q0 41 -0.5 80.5q-0.5 39.5 -4.5 79.5q-3 30 -8.5 58q-5.5 28 -18.5 50q-13 22 -35 35q-22 13 -59 13h-26v-553zM159 714l-112 107l38 38l74 -69l74 69l40 -38z" />
<glyph unicode="&#271;" horiz-adv-x="422" d="M215 0v36q-15 -20 -33 -31.5q-18 -11.5 -44 -11.5q-39 0 -60 24.5q-21 24.5 -31 59.5q-10 35 -12 74.5q-2 39.5 -2 68.5q0 33 1.5 73.5q1.5 40.5 12 76q10.5 35.5 33 60q22.5 24.5 64.5 24.5q24 0 40 -9q16 -9 31 -28l0 312h56v-729zM220 223q0 35 -1.5 68.5q-1.5 33.5 -8 59.5q-6.5 26 -19 42q-12.5 16 -34.5 16q-24 0 -37 -18.5q-13 -18.5 -19.5 -44.5q-6.5 -26 -7.5 -53q-1 -27 -1 -43q0 -28 0.5 -54.5q0.5 -26.5 2.5 -53.5q1 -15 3.5 -32.5q2.5 -17.5 8.5 -33.5q6 -16 17.5 -26.5q11.5 -10.5 31.5 -10.5q23 0 37 15q10 10 15.5 32.5q5.5 22.5 8 48q2.5 25.5 3 50q0.5 24.5 0.5 38.5zt0 0zM358 484l-39 19l55 173l58 -28z" />
<glyph unicode="&#272;" horiz-adv-x="371" d="M133 667q45 0 77.5 -9q32.5 -9 55 -29q22.5 -20 36 -51.5q13.5 -31.5 21.5 -76.5q7 -41 8.5 -82.5q1.5 -41.5 1.5 -83.5q0 -21 -0.5 -49q-0.5 -28 -2.5 -57q-2 -29 -5.5 -57q-3.5 -28 -9.5 -47q-22 -69 -64 -97q-42 -28 -114 -28h-82v321h-47v50h47v296zM146 57q22 0 41.5 5.5q19.5 5.5 35.5 22.5q18 19 27.5 46q9.5 27 14 56.5q4.5 29.5 5 59q0.5 29.5 0.5 53.5q0 20 -0.5 51.5q-0.5 31.5 -2.5 64.5q-2 33 -5.5 63.5q-3.5 30.5 -9.5 49.5q-14 43 -38 62q-24 19 -70 19h-27v-239h90v-50h-90l0 -264z" />
<glyph unicode="&#273;" horiz-adv-x="325" d="M215 0v36q-14 -20 -32 -31.5q-18 -11.5 -44 -11.5q-39 0 -60.5 24.5q-21.5 24.5 -31.5 59.5q-10 35 -12 74.5q-2 39.5 -2 68.5q0 24 1.5 59.5q1.5 35.5 12 69q10.5 33.5 33 57.5q22.5 24 64.5 24q24 0 40.5 -9q16.5 -9 30.5 -28l0 139h-103v52h103v145h57v-145h49v-52h-49v-532zM220 223q0 23 -1 51.5q-1 28.5 -7 53q-6 24.5 -18.5 41q-12.5 16.5 -36.5 16.5q-24 0 -37 -18.5q-13 -18.5 -19.5 -43.5q-6.5 -25 -7.5 -51q-1 -26 -1 -40q0 -17 0.5 -40q0.5 -23 2.5 -50q1 -15 3.5 -32.5q2.5 -17.5 8.5 -33.5q6 -16 17.5 -26.5q11.5 -10.5 31.5 -10.5q23 0 38 15q10 10 15 32.5q5 22.5 7.5 48q2.5 25.5 3 50t0.5 38.5z" />
<glyph unicode="&#274;" horiz-adv-x="301" d="M55 0v667h208v-57h-146v-235h142v-57h-142v-261h146v-57zM50 727v55h224l0 -55z" />
<glyph unicode="&#275;" horiz-adv-x="313" d="M276 152q-1 -27 -6.5 -55q-5.5 -28 -18 -51.5q-12.5 -23.5 -34 -38q-21.5 -14.5 -54.5 -14.5q-43 0 -69 23.5q-26 23.5 -39.5 58.5q-13.5 35 -17.5 75q-4 40 -4 72q0 30 4.5 70q4.5 40 18 76q13.5 36 38 61q24.5 25 65.5 25q39 0 63 -22.5q24 -22.5 37 -55q13 -32.5 17 -69.5q4 -37 4 -67q0 -7 -0.5 -14q-0.5 -7 -0.5 -14l-189 0v-10q0 -17 2 -43.5q2 -26.5 9.5 -51.5q7.5 -25 21.5 -43q14 -18 38 -18q19 0 30 11q11 11 17 27.5q6 16.5 8.5 35q2.5 18.5 2.5 32.5zM224 260q-1 15 -3 39q-2 24 -8.5 47q-6.5 23 -19 39.5q-12.5 16.5 -33.5 16.5q-22 0 -35 -16.5q-13 -16.5 -20.5 -39q-7.5 -22.5 -10 -47q-2.5 -24.5 -3.5 -39.5zM47 520v55h224l0 -55z" />
<glyph unicode="&#278;" horiz-adv-x="301" d="M55 0v667h208v-57h-146v-235h142v-57h-142v-261h146v-57zM208 766q0 -19 -13.5 -32.5q-13.5 -13.5 -32.5 -13.5q-19 0 -32 13.5q-13 13.5 -13 32.5q0 19 13 32q13 13 32 13q19 0 32.5 -13t13.5 -32z" />
<glyph unicode="&#279;" horiz-adv-x="313" d="M276 152q-1 -27 -6.5 -55q-5.5 -28 -18 -51.5q-12.5 -23.5 -34 -38q-21.5 -14.5 -54.5 -14.5q-43 0 -69 23.5q-26 23.5 -39.5 58.5q-13.5 35 -17.5 75q-4 40 -4 72q0 30 4.5 70q4.5 40 18 76q13.5 36 38 61q24.5 25 65.5 25q39 0 63 -22.5q24 -22.5 37 -55q13 -32.5 17 -69.5q4 -37 4 -67q0 -7 -0.5 -14q-0.5 -7 -0.5 -14l-189 0v-10q0 -17 2 -43.5q2 -26.5 9.5 -51.5q7.5 -25 21.5 -43q14 -18 38 -18q19 0 30 11q11 11 17 27.5q6 16.5 8.5 35q2.5 18.5 2.5 32.5zM224 260q-1 15 -3 39q-2 24 -8.5 47q-6.5 23 -19 39.5q-12.5 16.5 -33.5 16.5q-22 0 -35 -16.5q-13 -16.5 -20.5 -39q-7.5 -22.5 -10 -47q-2.5 -24.5 -3.5 -39.5zM205 559q0 -19 -13.5 -32.5q-13.5 -13.5 -32.5 -13.5q-19 0 -32 13.5q-13 13.5 -13 32.5q0 19 13 32q13 13 32 13q19 0 32.5 -13t13.5 -32z" />
<glyph unicode="&#280;" horiz-adv-x="301" d="M117 318v-261h146v-57h-14q-9 -8 -19 -17.5q-10 -9.5 -16 -15.5q-6 -7 -11.5 -16q-5.5 -9 -5.5 -22q0 -8 3 -14q3 -6 6 -9q9 -9 26 -9q2 0 11 1q9 1 20 7l0 -48q-20 -9 -44 -9q-11 0 -26 3q-15 3 -28 17q-6 6 -11.5 17q-5.5 11 -5.5 27q0 15 5 27.5q5 12.5 13 23.5q7 9 17.5 19q10.5 10 19.5 18l-148 0v667h208v-57h-146v-235h142l0 -57z" />
<glyph unicode="&#281;" horiz-adv-x="313" d="M276 152q-1 -50 -12.5 -78.5q-11.5 -28.5 -19.5 -40.5q-11 -17 -21.5 -28.5q-10.5 -11.5 -25.5 -31.5q-7 -9 -13 -20q-6 -11 -6 -23q0 -6 2.5 -12.5q2.5 -6.5 7.5 -11.5q10 -8 23 -8q17 0 35 10l0 -47q-20 -11 -46 -11q-19 0 -30.5 5q-11.5 5 -16.5 9q-12 9 -17.5 21.5q-5.5 12.5 -5.5 25.5q0 23 15 46q5 8 15 20q10 12 12 16q-18 0 -41.5 5q-23.5 5 -45.5 28q-16 16 -26 39.5q-10 23.5 -16 49.5q-6 26 -8 52.5q-2 26.5 -2 49.5q0 28 2 57.5q2 29.5 8.5 57.5q6.5 28 18 52q11.5 24 29.5 42q15 15 32 21.5q17 6.5 38 6.5q24 0 40.5 -9q16.5 -9 27.5 -20q30 -30 41 -78q11 -48 11 -93q0 -11 -0.5 -21.5q-0.5 -10.5 -1.5 -20.5l-189 0v-4q0 -23 2 -46q2 -23 6 -42q6 -27 13.5 -40q7.5 -13 12.5 -18q7 -7 16 -11.5q9 -4.5 23 -4.5q19 0 31 14q14 15 19.5 41.5q5.5 26.5 5.5 50.5zM224 260q0 14 -2.5 33q-2.5 19 -6.5 37.5q-4 18.5 -10 34.5q-6 16 -14 24q-13 13 -31 13q-10 0 -18 -4q-8 -4 -14 -9q-9 -8 -16 -23.5q-7 -15.5 -11.5 -34q-4.5 -18.5 -7 -37.5q-2.5 -19 -2.5 -34z" />
<glyph unicode="&#282;" horiz-adv-x="301" d="M55 0v667h208v-57h-146v-235h142v-57h-142v-261h146v-57zM164 714l-112 107l38 38l74 -69l74 69l40 -38z" />
<glyph unicode="&#283;" horiz-adv-x="313" d="M276 152q-1 -27 -6.5 -55q-5.5 -28 -18 -51.5q-12.5 -23.5 -34 -38q-21.5 -14.5 -54.5 -14.5q-43 0 -69 23.5q-26 23.5 -39.5 58.5q-13.5 35 -17.5 75q-4 40 -4 72q0 30 4.5 70q4.5 40 18 76q13.5 36 38 61q24.5 25 65.5 25q39 0 63 -22.5q24 -22.5 37 -55q13 -32.5 17 -69.5q4 -37 4 -67q0 -7 -0.5 -14q-0.5 -7 -0.5 -14l-189 0v-10q0 -17 2 -43.5q2 -26.5 9.5 -51.5q7.5 -25 21.5 -43q14 -18 38 -18q19 0 30 11q11 11 17 27.5q6 16.5 8.5 35q2.5 18.5 2.5 32.5zM224 260q-1 15 -3 39q-2 24 -8.5 47q-6.5 23 -19 39.5q-12.5 16.5 -33.5 16.5q-22 0 -35 -16.5q-13 -16.5 -20.5 -39q-7.5 -22.5 -10 -47q-2.5 -24.5 -3.5 -39.5zM158 507l-112 107l38 38l74 -69l74 69l40 -38z" />
<glyph unicode="&#284;" horiz-adv-x="374" d="M336 218q0 -24 -0.5 -48.5q-0.5 -24.5 -4.5 -48.5q-9 -57 -42.5 -93.5q-33.5 -36.5 -94.5 -36.5q-38 0 -67 16q-29 16 -48 48q-14 25 -22.5 63q-8.5 38 -12.5 80q-4 42 -5 82.5q-1 40.5 -1 69.5q0 28 1 63.5q1 35.5 5.5 71.5q4.5 36 14.5 70.5q10 34.5 28 61.5q18 27 45.5 43q27.5 16 67.5 16q31 0 53 -9.5q22 -9.5 38 -26.5q16 -17 26.5 -40q10.5 -23 17.5 -50l-61 -24q-3 16 -8 32q-5 16 -13 29q-8 13 -21 21q-13 8 -32 8q-24 0 -41 -13.5q-17 -13.5 -28 -34.5q-11 -21 -17 -48q-6 -27 -9 -54q-3 -27 -3.5 -51.5q-0.5 -24.5 -0.5 -41.5q0 -26 0 -60.5q0 -34.5 2 -70q2 -35.5 6.5 -69q4.5 -33.5 12.5 -57.5q10 -29 27 -47q17 -18 49 -18q27 0 42.5 14q15.5 14 23 35q7.5 21 9 45q1.5 24 1.5 44v106h-91v57h153zM273 714l-74 69l-74 -69l-38 38l112 107l114 -107z" />
<glyph unicode="&#285;" horiz-adv-x="331" d="M281 -49q0 -61 -26 -96q-26 -35 -91 -35q-59 0 -87.5 33.5q-28.5 33.5 -28.5 90.5q0 5 0 9q0 4 1 8l57 0q0 -17 1.5 -33q1.5 -16 8 -28q6.5 -12 18.5 -19.5q12 -7.5 33 -7.5q21 0 32.5 7.5q11.5 7.5 17 20q5.5 12.5 6.5 28q1 15.5 1 31.5v72q-15 -17 -31.5 -24.5q-16.5 -7.5 -39.5 -7.5q-42 0 -65.5 25q-23.5 25 -34 61q-10.5 36 -12.5 76.5q-2 40.5 -2 70.5q0 28 3 66q3 38 14 72.5q11 34.5 33 58.5q22 24 61 24q24 0 41.5 -9.5q17.5 -9.5 32.5 -28.5l0 31h57zM230 250q0 18 -1 44.5q-1 26.5 -7.5 52q-6.5 25.5 -20.5 43.5q-14 18 -39 18q-27 0 -40.5 -23.5q-13.5 -23.5 -19 -56q-5.5 -32.5 -5.5 -65.5q0 -33 0 -51q0 -18 1 -46q1 -28 8 -55q7 -27 21 -46q14 -19 40 -19q19 0 30 10q11 10 17.5 24.5q6.5 14.5 9 31q2.5 16.5 3.5 30.5q2 28 2.5 54.5q0.5 26.5 0.5 53.5zt0 0zM241 507l-74 69l-74 -69l-38 38l112 107l114 -107z" />
<glyph unicode="&#286;" horiz-adv-x="374" d="M336 218q0 -24 -0.5 -48.5q-0.5 -24.5 -4.5 -48.5q-9 -57 -42.5 -93.5q-33.5 -36.5 -94.5 -36.5q-38 0 -67 16q-29 16 -48 48q-14 25 -22.5 63q-8.5 38 -12.5 80q-4 42 -5 82.5q-1 40.5 -1 69.5q0 28 1 63.5q1 35.5 5.5 71.5q4.5 36 14.5 70.5q10 34.5 28 61.5q18 27 45.5 43q27.5 16 67.5 16q31 0 53 -9.5q22 -9.5 38 -26.5q16 -17 26.5 -40q10.5 -23 17.5 -50l-61 -24q-3 16 -8 32q-5 16 -13 29q-8 13 -21 21q-13 8 -32 8q-24 0 -41 -13.5q-17 -13.5 -28 -34.5q-11 -21 -17 -48q-6 -27 -9 -54q-3 -27 -3.5 -51.5q-0.5 -24.5 -0.5 -41.5q0 -26 0 -60.5q0 -34.5 2 -70q2 -35.5 6.5 -69q4.5 -33.5 12.5 -57.5q10 -29 27 -47q17 -18 49 -18q27 0 42.5 14q15.5 14 23 35q7.5 21 9 45q1.5 24 1.5 44v106h-91v57h153zM323 810q-3 -24 -14 -41.5q-11 -17.5 -28 -29q-17 -11.5 -38 -16.5q-21 -5 -43 -5q-22 0 -43 5q-21 5 -38 16.5q-17 11.5 -28 29q-11 17.5 -14 41.5l48 0q10 -23 31 -32q21 -9 44 -9q23 0 44 9q21 9 31 32z" />
<glyph unicode="&#287;" horiz-adv-x="331" d="M281 -49q0 -61 -26 -96q-26 -35 -91 -35q-59 0 -87.5 33.5q-28.5 33.5 -28.5 90.5q0 5 0 9q0 4 1 8l57 0q0 -17 1.5 -33q1.5 -16 8 -28q6.5 -12 18.5 -19.5q12 -7.5 33 -7.5q21 0 32.5 7.5q11.5 7.5 17 20q5.5 12.5 6.5 28q1 15.5 1 31.5v72q-15 -17 -31.5 -24.5q-16.5 -7.5 -39.5 -7.5q-42 0 -65.5 25q-23.5 25 -34 61q-10.5 36 -12.5 76.5q-2 40.5 -2 70.5q0 28 3 66q3 38 14 72.5q11 34.5 33 58.5q22 24 61 24q24 0 41.5 -9.5q17.5 -9.5 32.5 -28.5l0 31h57zM230 250q0 18 -1 44.5q-1 26.5 -7.5 52q-6.5 25.5 -20.5 43.5q-14 18 -39 18q-27 0 -40.5 -23.5q-13.5 -23.5 -19 -56q-5.5 -32.5 -5.5 -65.5q0 -33 0 -51q0 -18 1 -46q1 -28 8 -55q7 -27 21 -46q14 -19 40 -19q19 0 30 10q11 10 17.5 24.5q6.5 14.5 9 31q2.5 16.5 3.5 30.5q2 28 2.5 54.5q0.5 26.5 0.5 53.5zt0 0zM291 599q-3 -24 -14 -41.5q-11 -17.5 -28 -29q-17 -11.5 -38 -16.5q-21 -5 -43 -5q-22 0 -43 5q-21 5 -38 16.5q-17 11.5 -28 29q-11 17.5 -14 41.5l48 0q10 -23 31 -32q21 -9 44 -9q23 0 44 9q21 9 31 32z" />
<glyph unicode="&#288;" horiz-adv-x="374" d="M336 218q0 -24 -0.5 -48.5q-0.5 -24.5 -4.5 -48.5q-9 -57 -42.5 -93.5q-33.5 -36.5 -94.5 -36.5q-38 0 -67 16q-29 16 -48 48q-14 25 -22.5 63q-8.5 38 -12.5 80q-4 42 -5 82.5q-1 40.5 -1 69.5q0 28 1 63.5q1 35.5 5.5 71.5q4.5 36 14.5 70.5q10 34.5 28 61.5q18 27 45.5 43q27.5 16 67.5 16q31 0 53 -9.5q22 -9.5 38 -26.5q16 -17 26.5 -40q10.5 -23 17.5 -50l-61 -24q-3 16 -8 32q-5 16 -13 29q-8 13 -21 21q-13 8 -32 8q-24 0 -41 -13.5q-17 -13.5 -28 -34.5q-11 -21 -17 -48q-6 -27 -9 -54q-3 -27 -3.5 -51.5q-0.5 -24.5 -0.5 -41.5q0 -26 0 -60.5q0 -34.5 2 -70q2 -35.5 6.5 -69q4.5 -33.5 12.5 -57.5q10 -29 27 -47q17 -18 49 -18q27 0 42.5 14q15.5 14 23 35q7.5 21 9 45q1.5 24 1.5 44v106h-91v57h153zM240 766q0 -19 -13.5 -32.5q-13.5 -13.5 -32.5 -13.5q-19 0 -32 13.5q-13 13.5 -13 32.5q0 19 13 32q13 13 32 13q19 0 32.5 -13t13.5 -32z" />
<glyph unicode="&#289;" horiz-adv-x="331" d="M281 -49q0 -61 -26 -96q-26 -35 -91 -35q-59 0 -87.5 33.5q-28.5 33.5 -28.5 90.5q0 5 0 9q0 4 1 8l57 0q0 -17 1.5 -33q1.5 -16 8 -28q6.5 -12 18.5 -19.5q12 -7.5 33 -7.5q21 0 32.5 7.5q11.5 7.5 17 20q5.5 12.5 6.5 28q1 15.5 1 31.5v72q-15 -17 -31.5 -24.5q-16.5 -7.5 -39.5 -7.5q-42 0 -65.5 25q-23.5 25 -34 61q-10.5 36 -12.5 76.5q-2 40.5 -2 70.5q0 28 3 66q3 38 14 72.5q11 34.5 33 58.5q22 24 61 24q24 0 41.5 -9.5q17.5 -9.5 32.5 -28.5l0 31h57zM230 250q0 18 -1 44.5q-1 26.5 -7.5 52q-6.5 25.5 -20.5 43.5q-14 18 -39 18q-27 0 -40.5 -23.5q-13.5 -23.5 -19 -56q-5.5 -32.5 -5.5 -65.5q0 -33 0 -51q0 -18 1 -46q1 -28 8 -55q7 -27 21 -46q14 -19 40 -19q19 0 30 10q11 10 17.5 24.5q6.5 14.5 9 31q2.5 16.5 3.5 30.5q2 28 2.5 54.5q0.5 26.5 0.5 53.5zt0 0zM200 559q0 -19 -13.5 -32.5q-13.5 -13.5 -32.5 -13.5q-19 0 -32 13.5q-13 13.5 -13 32.5q0 19 13 32q13 13 32 13q19 0 32.5 -13t13.5 -32z" />
<glyph unicode="&#290;" horiz-adv-x="374" d="M336 218q0 -24 -0.5 -48.5q-0.5 -24.5 -4.5 -48.5q-9 -57 -42.5 -93.5q-33.5 -36.5 -94.5 -36.5q-38 0 -67 16q-29 16 -48 48q-14 25 -22.5 63q-8.5 38 -12.5 80q-4 42 -5 82.5q-1 40.5 -1 69.5q0 28 1 63.5q1 35.5 5.5 71.5q4.5 36 14.5 70.5q10 34.5 28 61.5q18 27 45.5 43q27.5 16 67.5 16q31 0 53 -9.5q22 -9.5 38 -26.5q16 -17 26.5 -40q10.5 -23 17.5 -50l-61 -24q-3 16 -8 32q-5 16 -13 29q-8 13 -21 21q-13 8 -32 8q-24 0 -41 -13.5q-17 -13.5 -28 -34.5q-11 -21 -17 -48q-6 -27 -9 -54q-3 -27 -3.5 -51.5q-0.5 -24.5 -0.5 -41.5q0 -26 0 -60.5q0 -34.5 2 -70q2 -35.5 6.5 -69q4.5 -33.5 12.5 -57.5q10 -29 27 -47q17 -18 49 -18q27 0 42.5 14q15.5 14 23 35q7.5 21 9 45q1.5 24 1.5 44v106h-91v57h153zM173 -231l-39 19l53 163l58 -28z" />
<glyph unicode="&#291;" horiz-adv-x="331" d="M281 -49q0 -61 -26 -96q-26 -35 -91 -35q-59 0 -87.5 33.5q-28.5 33.5 -28.5 90.5q0 5 0 9q0 4 1 8l57 0q0 -17 1.5 -33q1.5 -16 8 -28q6.5 -12 18.5 -19.5q12 -7.5 33 -7.5q21 0 32.5 7.5q11.5 7.5 17 20q5.5 12.5 6.5 28q1 15.5 1 31.5v72q-15 -17 -31.5 -24.5q-16.5 -7.5 -39.5 -7.5q-42 0 -65.5 25q-23.5 25 -34 61q-10.5 36 -12.5 76.5q-2 40.5 -2 70.5q0 28 3 66q3 38 14 72.5q11 34.5 33 58.5q22 24 61 24q24 0 41.5 -9.5q17.5 -9.5 32.5 -28.5l0 31h57zM230 250q0 18 -1 44.5q-1 26.5 -7.5 52q-6.5 25.5 -20.5 43.5q-14 18 -39 18q-27 0 -40.5 -23.5q-13.5 -23.5 -19 -56q-5.5 -32.5 -5.5 -65.5q0 -33 0 -51q0 -18 1 -46q1 -28 8 -55q7 -27 21 -46q14 -19 40 -19q19 0 30 10q11 10 17.5 24.5q6.5 14.5 9 31q2.5 16.5 3.5 30.5q2 28 2.5 54.5q0.5 26.5 0.5 53.5zt0 0zM181 684l39 -19l-53 -163l-58 28z" />
<glyph unicode="&#292;" horiz-adv-x="385" d="M269 0v344h-152v-344h-62v667h62v-266h152v266h62v-667zM266 714l-74 69l-74 -69l-38 38l112 107l114 -107z" />
<glyph unicode="&#293;" horiz-adv-x="330" d="M224 0v321q0 14 -0.5 29.5q-0.5 15.5 -5 28q-4.5 12.5 -15 21q-10.5 8.5 -29.5 8.5q-16 0 -30.5 -7.5q-14.5 -7.5 -22.5 -21.5q-11 -17 -13 -37.5q-2 -20.5 -2 -40.5v-301h-56v729h56v-318q17 19 39 31q22 12 48 12q27 0 44 -9q17 -9 26.5 -25q9.5 -16 13 -36.5q3.5 -20.5 3.5 -44.5v-339zM153 737l-74 69l-74 -69l-38 38l112 107l114 -107z" />
<glyph unicode="&#294;" horiz-adv-x="385" d="M269 0v344h-152v-344h-62v562h-50v47h50v58h62v-58h152v58h62v-58h50v-47h-50v-562zM117 562v-161h152l0 161z" />
<glyph unicode="&#295;" horiz-adv-x="340" d="M234 0v297q0 14 -0.5 29.5q-0.5 15.5 -5 28q-4.5 12.5 -15 21q-10.5 8.5 -29.5 8.5q-16 0 -30.5 -7.5q-14.5 -7.5 -23.5 -21.5q-11 -17 -13 -37.5q-2 -20.5 -2 -40.5v-277h-56v532h-49v52h49v145h56v-145h104v-52h-104v-145q17 19 39 31q22 12 48 12q27 0 44.5 -9q17.5 -9 27 -25q9.5 -16 13 -36.5q3.5 -20.5 3.5 -44.5l0 -315z" />
<glyph unicode="&#298;" horiz-adv-x="171" d="M55 0v667h62v-667zM-28 727v55h224l0 -55z" />
</font>
</defs>
</svg>
